<?xml version="1.0" encoding="utf-8" standalone="no"?>
<!DOCTYPE svg PUBLIC "-//W3C//DTD SVG 1.1//EN"
  "http://www.w3.org/Graphics/SVG/1.1/DTD/svg11.dtd">
<svg xmlns:xlink="http://www.w3.org/1999/xlink" width="460.8pt" height="345.6pt" viewBox="0 0 460.8 345.6" xmlns="http://www.w3.org/2000/svg" version="1.1">
 <metadata>
  <rdf:RDF xmlns:dc="http://purl.org/dc/elements/1.1/" xmlns:cc="http://creativecommons.org/ns#" xmlns:rdf="http://www.w3.org/1999/02/22-rdf-syntax-ns#">
   <cc:Work>
    <dc:type rdf:resource="http://purl.org/dc/dcmitype/StillImage"/>
    <dc:date>2024-10-22T20:45:46.611719</dc:date>
    <dc:format>image/svg+xml</dc:format>
    <dc:creator>
     <cc:Agent>
      <dc:title>Matplotlib v3.7.2, https://matplotlib.org/</dc:title>
     </cc:Agent>
    </dc:creator>
   </cc:Work>
  </rdf:RDF>
 </metadata>
 <defs>
  <style type="text/css">*{stroke-linejoin: round; stroke-linecap: butt}</style>
 </defs>
 <g id="figure_1">
  <g id="patch_1">
   <path d="M 0 345.6 
L 460.8 345.6 
L 460.8 0 
L 0 0 
z
" style="fill: #ffffff"/>
  </g>
  <g id="axes_1">
   <g id="patch_2">
    <path d="M 57.6 307.584 
L 414.72 307.584 
L 414.72 41.472 
L 57.6 41.472 
z
" style="fill: #ffffff"/>
   </g>
   <g id="matplotlib.axis_1">
    <g id="xtick_1">
     <g id="line2d_1">
      <path d="M 73.832727 307.584 
L 73.832727 41.472 
" clip-path="url(#pb9235d4977)" style="fill: none; stroke: #d3d3d3; stroke-width: 0.8; stroke-linecap: square"/>
     </g>
     <g id="line2d_2">
      <defs>
       <path id="mf2bb4cc4f5" d="M 0 0 
L 0 3.5 
" style="stroke: #000000; stroke-width: 0.8"/>
      </defs>
      <g>
       <use xlink:href="#mf2bb4cc4f5" x="73.832727" y="307.584" style="stroke: #000000; stroke-width: 0.8"/>
      </g>
     </g>
     <g id="text_1">
      <!-- 0.0 -->
      <g transform="translate(67.582727 321.413687) scale(0.1 -0.1)">
       <defs>
        <path id="STIXGeneral-Regular-30" d="M 3046 2112 
Q 3046 1683 2963 1302 
Q 2880 922 2717 602 
Q 2554 282 2266 96 
Q 1978 -90 1600 -90 
Q 1210 -90 915 108 
Q 621 307 461 640 
Q 301 973 227 1350 
Q 154 1728 154 2150 
Q 154 2746 301 3222 
Q 448 3699 790 4012 
Q 1133 4326 1626 4326 
Q 2253 4326 2649 3712 
Q 3046 3098 3046 2112 
z
M 2432 2080 
Q 2432 3091 2217 3625 
Q 2003 4160 1587 4160 
Q 1190 4160 979 3622 
Q 768 3085 768 2106 
Q 768 1120 979 598 
Q 1190 77 1600 77 
Q 2003 77 2217 598 
Q 2432 1120 2432 2080 
z
" transform="scale(0.015625)"/>
        <path id="STIXGeneral-Regular-2e" d="M 1158 275 
Q 1158 134 1052 32 
Q 947 -70 800 -70 
Q 653 -70 550 32 
Q 448 134 448 281 
Q 448 429 553 534 
Q 659 640 806 640 
Q 947 640 1052 531 
Q 1158 422 1158 275 
z
" transform="scale(0.015625)"/>
       </defs>
       <use xlink:href="#STIXGeneral-Regular-30"/>
       <use xlink:href="#STIXGeneral-Regular-2e" x="49.999985"/>
       <use xlink:href="#STIXGeneral-Regular-30" x="74.999969"/>
      </g>
     </g>
    </g>
    <g id="xtick_2">
     <g id="line2d_3">
      <path d="M 138.763636 307.584 
L 138.763636 41.472 
" clip-path="url(#pb9235d4977)" style="fill: none; stroke: #d3d3d3; stroke-width: 0.8; stroke-linecap: square"/>
     </g>
     <g id="line2d_4">
      <g>
       <use xlink:href="#mf2bb4cc4f5" x="138.763636" y="307.584" style="stroke: #000000; stroke-width: 0.8"/>
      </g>
     </g>
     <g id="text_2">
      <!-- 0.2 -->
      <g transform="translate(132.513636 321.413687) scale(0.1 -0.1)">
       <defs>
        <path id="STIXGeneral-Regular-32" d="M 3034 877 
L 2688 0 
L 186 0 
L 186 77 
L 1325 1286 
Q 1773 1754 1965 2144 
Q 2157 2534 2157 2950 
Q 2157 3379 1920 3616 
Q 1683 3853 1267 3853 
Q 922 3853 720 3673 
Q 518 3494 326 3021 
L 192 3053 
Q 301 3648 630 3987 
Q 960 4326 1523 4326 
Q 2054 4326 2380 4006 
Q 2707 3686 2707 3200 
Q 2707 2477 1888 1613 
L 832 486 
L 2330 486 
Q 2541 486 2665 569 
Q 2790 653 2944 915 
L 3034 877 
z
" transform="scale(0.015625)"/>
       </defs>
       <use xlink:href="#STIXGeneral-Regular-30"/>
       <use xlink:href="#STIXGeneral-Regular-2e" x="49.999985"/>
       <use xlink:href="#STIXGeneral-Regular-32" x="74.999969"/>
      </g>
     </g>
    </g>
    <g id="xtick_3">
     <g id="line2d_5">
      <path d="M 203.694545 307.584 
L 203.694545 41.472 
" clip-path="url(#pb9235d4977)" style="fill: none; stroke: #d3d3d3; stroke-width: 0.8; stroke-linecap: square"/>
     </g>
     <g id="line2d_6">
      <g>
       <use xlink:href="#mf2bb4cc4f5" x="203.694545" y="307.584" style="stroke: #000000; stroke-width: 0.8"/>
      </g>
     </g>
     <g id="text_3">
      <!-- 0.4 -->
      <g transform="translate(197.444545 321.413687) scale(0.1 -0.1)">
       <defs>
        <path id="STIXGeneral-Regular-34" d="M 3027 1069 
L 2368 1069 
L 2368 0 
L 1869 0 
L 1869 1069 
L 77 1069 
L 77 1478 
L 2086 4326 
L 2368 4326 
L 2368 1478 
L 3027 1478 
L 3027 1069 
z
M 1869 1478 
L 1869 3674 
L 333 1478 
L 1869 1478 
z
" transform="scale(0.015625)"/>
       </defs>
       <use xlink:href="#STIXGeneral-Regular-30"/>
       <use xlink:href="#STIXGeneral-Regular-2e" x="49.999985"/>
       <use xlink:href="#STIXGeneral-Regular-34" x="74.999969"/>
      </g>
     </g>
    </g>
    <g id="xtick_4">
     <g id="line2d_7">
      <path d="M 268.625455 307.584 
L 268.625455 41.472 
" clip-path="url(#pb9235d4977)" style="fill: none; stroke: #d3d3d3; stroke-width: 0.8; stroke-linecap: square"/>
     </g>
     <g id="line2d_8">
      <g>
       <use xlink:href="#mf2bb4cc4f5" x="268.625455" y="307.584" style="stroke: #000000; stroke-width: 0.8"/>
      </g>
     </g>
     <g id="text_4">
      <!-- 0.6 -->
      <g transform="translate(262.375455 321.413687) scale(0.1 -0.1)">
       <defs>
        <path id="STIXGeneral-Regular-36" d="M 2854 4378 
L 2867 4275 
Q 2112 4154 1606 3664 
Q 1101 3174 973 2451 
Q 1344 2739 1786 2739 
Q 2349 2739 2672 2380 
Q 2995 2022 2995 1402 
Q 2995 774 2669 378 
Q 2291 -90 1651 -90 
Q 870 -90 518 557 
Q 218 1107 218 1786 
Q 218 2835 915 3552 
Q 1312 3962 1731 4131 
Q 2150 4301 2854 4378 
z
M 2419 1203 
Q 2419 2445 1555 2445 
Q 1235 2445 1024 2275 
Q 813 2106 813 1702 
Q 813 954 1046 522 
Q 1280 90 1722 90 
Q 2061 90 2240 394 
Q 2419 698 2419 1203 
z
" transform="scale(0.015625)"/>
       </defs>
       <use xlink:href="#STIXGeneral-Regular-30"/>
       <use xlink:href="#STIXGeneral-Regular-2e" x="49.999985"/>
       <use xlink:href="#STIXGeneral-Regular-36" x="74.999969"/>
      </g>
     </g>
    </g>
    <g id="xtick_5">
     <g id="line2d_9">
      <path d="M 333.556364 307.584 
L 333.556364 41.472 
" clip-path="url(#pb9235d4977)" style="fill: none; stroke: #d3d3d3; stroke-width: 0.8; stroke-linecap: square"/>
     </g>
     <g id="line2d_10">
      <g>
       <use xlink:href="#mf2bb4cc4f5" x="333.556364" y="307.584" style="stroke: #000000; stroke-width: 0.8"/>
      </g>
     </g>
     <g id="text_5">
      <!-- 0.8 -->
      <g transform="translate(327.306364 321.413687) scale(0.1 -0.1)">
       <defs>
        <path id="STIXGeneral-Regular-38" d="M 2848 992 
Q 2848 499 2505 204 
Q 2163 -90 1587 -90 
Q 1050 -90 704 204 
Q 358 499 358 954 
Q 358 1293 524 1533 
Q 691 1773 1190 2125 
Q 710 2522 553 2765 
Q 397 3008 397 3328 
Q 397 3782 745 4054 
Q 1094 4326 1638 4326 
Q 2106 4326 2410 4060 
Q 2714 3795 2714 3411 
Q 2714 3059 2531 2848 
Q 2349 2637 1856 2374 
Q 2432 1990 2640 1689 
Q 2848 1389 2848 992 
z
M 2272 3411 
Q 2272 3744 2086 3945 
Q 1901 4147 1574 4147 
Q 1248 4147 1059 3977 
Q 870 3808 870 3513 
Q 870 3219 1059 2979 
Q 1248 2739 1670 2490 
Q 1997 2682 2134 2896 
Q 2272 3110 2272 3411 
z
M 1734 1741 
L 1357 1997 
Q 1075 1766 960 1545 
Q 845 1325 845 1011 
Q 845 576 1065 333 
Q 1286 90 1658 90 
Q 1971 90 2166 285 
Q 2362 480 2362 794 
Q 2362 1082 2214 1299 
Q 2067 1517 1734 1741 
z
" transform="scale(0.015625)"/>
       </defs>
       <use xlink:href="#STIXGeneral-Regular-30"/>
       <use xlink:href="#STIXGeneral-Regular-2e" x="49.999985"/>
       <use xlink:href="#STIXGeneral-Regular-38" x="74.999969"/>
      </g>
     </g>
    </g>
    <g id="xtick_6">
     <g id="line2d_11">
      <path d="M 398.487273 307.584 
L 398.487273 41.472 
" clip-path="url(#pb9235d4977)" style="fill: none; stroke: #d3d3d3; stroke-width: 0.8; stroke-linecap: square"/>
     </g>
     <g id="line2d_12">
      <g>
       <use xlink:href="#mf2bb4cc4f5" x="398.487273" y="307.584" style="stroke: #000000; stroke-width: 0.8"/>
      </g>
     </g>
     <g id="text_6">
      <!-- 1.0 -->
      <g transform="translate(392.237273 321.413687) scale(0.1 -0.1)">
       <defs>
        <path id="STIXGeneral-Regular-31" d="M 2522 0 
L 755 0 
L 755 96 
Q 1107 115 1235 227 
Q 1363 339 1363 608 
L 1363 3482 
Q 1363 3795 1171 3795 
Q 1082 3795 883 3718 
L 710 3654 
L 710 3744 
L 1856 4326 
L 1914 4307 
L 1914 486 
Q 1914 275 2042 185 
Q 2170 96 2522 96 
L 2522 0 
z
" transform="scale(0.015625)"/>
       </defs>
       <use xlink:href="#STIXGeneral-Regular-31"/>
       <use xlink:href="#STIXGeneral-Regular-2e" x="49.999985"/>
       <use xlink:href="#STIXGeneral-Regular-30" x="74.999969"/>
      </g>
     </g>
    </g>
    <g id="xtick_7">
     <g id="line2d_13">
      <path d="M 90.065455 307.584 
L 90.065455 41.472 
" clip-path="url(#pb9235d4977)" style="fill: none; stroke-dasharray: 0.8,1.32; stroke-dashoffset: 0; stroke: #d3d3d3; stroke-width: 0.8"/>
     </g>
     <g id="line2d_14">
      <defs>
       <path id="m88d68b5d91" d="M 0 0 
L 0 2 
" style="stroke: #000000; stroke-width: 0.6"/>
      </defs>
      <g>
       <use xlink:href="#m88d68b5d91" x="90.065455" y="307.584" style="stroke: #000000; stroke-width: 0.6"/>
      </g>
     </g>
    </g>
    <g id="xtick_8">
     <g id="line2d_15">
      <path d="M 106.298182 307.584 
L 106.298182 41.472 
" clip-path="url(#pb9235d4977)" style="fill: none; stroke-dasharray: 0.8,1.32; stroke-dashoffset: 0; stroke: #d3d3d3; stroke-width: 0.8"/>
     </g>
     <g id="line2d_16">
      <g>
       <use xlink:href="#m88d68b5d91" x="106.298182" y="307.584" style="stroke: #000000; stroke-width: 0.6"/>
      </g>
     </g>
    </g>
    <g id="xtick_9">
     <g id="line2d_17">
      <path d="M 122.530909 307.584 
L 122.530909 41.472 
" clip-path="url(#pb9235d4977)" style="fill: none; stroke-dasharray: 0.8,1.32; stroke-dashoffset: 0; stroke: #d3d3d3; stroke-width: 0.8"/>
     </g>
     <g id="line2d_18">
      <g>
       <use xlink:href="#m88d68b5d91" x="122.530909" y="307.584" style="stroke: #000000; stroke-width: 0.6"/>
      </g>
     </g>
    </g>
    <g id="xtick_10">
     <g id="line2d_19">
      <path d="M 154.996364 307.584 
L 154.996364 41.472 
" clip-path="url(#pb9235d4977)" style="fill: none; stroke-dasharray: 0.8,1.32; stroke-dashoffset: 0; stroke: #d3d3d3; stroke-width: 0.8"/>
     </g>
     <g id="line2d_20">
      <g>
       <use xlink:href="#m88d68b5d91" x="154.996364" y="307.584" style="stroke: #000000; stroke-width: 0.6"/>
      </g>
     </g>
    </g>
    <g id="xtick_11">
     <g id="line2d_21">
      <path d="M 171.229091 307.584 
L 171.229091 41.472 
" clip-path="url(#pb9235d4977)" style="fill: none; stroke-dasharray: 0.8,1.32; stroke-dashoffset: 0; stroke: #d3d3d3; stroke-width: 0.8"/>
     </g>
     <g id="line2d_22">
      <g>
       <use xlink:href="#m88d68b5d91" x="171.229091" y="307.584" style="stroke: #000000; stroke-width: 0.6"/>
      </g>
     </g>
    </g>
    <g id="xtick_12">
     <g id="line2d_23">
      <path d="M 187.461818 307.584 
L 187.461818 41.472 
" clip-path="url(#pb9235d4977)" style="fill: none; stroke-dasharray: 0.8,1.32; stroke-dashoffset: 0; stroke: #d3d3d3; stroke-width: 0.8"/>
     </g>
     <g id="line2d_24">
      <g>
       <use xlink:href="#m88d68b5d91" x="187.461818" y="307.584" style="stroke: #000000; stroke-width: 0.6"/>
      </g>
     </g>
    </g>
    <g id="xtick_13">
     <g id="line2d_25">
      <path d="M 219.927273 307.584 
L 219.927273 41.472 
" clip-path="url(#pb9235d4977)" style="fill: none; stroke-dasharray: 0.8,1.32; stroke-dashoffset: 0; stroke: #d3d3d3; stroke-width: 0.8"/>
     </g>
     <g id="line2d_26">
      <g>
       <use xlink:href="#m88d68b5d91" x="219.927273" y="307.584" style="stroke: #000000; stroke-width: 0.6"/>
      </g>
     </g>
    </g>
    <g id="xtick_14">
     <g id="line2d_27">
      <path d="M 236.16 307.584 
L 236.16 41.472 
" clip-path="url(#pb9235d4977)" style="fill: none; stroke-dasharray: 0.8,1.32; stroke-dashoffset: 0; stroke: #d3d3d3; stroke-width: 0.8"/>
     </g>
     <g id="line2d_28">
      <g>
       <use xlink:href="#m88d68b5d91" x="236.16" y="307.584" style="stroke: #000000; stroke-width: 0.6"/>
      </g>
     </g>
    </g>
    <g id="xtick_15">
     <g id="line2d_29">
      <path d="M 252.392727 307.584 
L 252.392727 41.472 
" clip-path="url(#pb9235d4977)" style="fill: none; stroke-dasharray: 0.8,1.32; stroke-dashoffset: 0; stroke: #d3d3d3; stroke-width: 0.8"/>
     </g>
     <g id="line2d_30">
      <g>
       <use xlink:href="#m88d68b5d91" x="252.392727" y="307.584" style="stroke: #000000; stroke-width: 0.6"/>
      </g>
     </g>
    </g>
    <g id="xtick_16">
     <g id="line2d_31">
      <path d="M 284.858182 307.584 
L 284.858182 41.472 
" clip-path="url(#pb9235d4977)" style="fill: none; stroke-dasharray: 0.8,1.32; stroke-dashoffset: 0; stroke: #d3d3d3; stroke-width: 0.8"/>
     </g>
     <g id="line2d_32">
      <g>
       <use xlink:href="#m88d68b5d91" x="284.858182" y="307.584" style="stroke: #000000; stroke-width: 0.6"/>
      </g>
     </g>
    </g>
    <g id="xtick_17">
     <g id="line2d_33">
      <path d="M 301.090909 307.584 
L 301.090909 41.472 
" clip-path="url(#pb9235d4977)" style="fill: none; stroke-dasharray: 0.8,1.32; stroke-dashoffset: 0; stroke: #d3d3d3; stroke-width: 0.8"/>
     </g>
     <g id="line2d_34">
      <g>
       <use xlink:href="#m88d68b5d91" x="301.090909" y="307.584" style="stroke: #000000; stroke-width: 0.6"/>
      </g>
     </g>
    </g>
    <g id="xtick_18">
     <g id="line2d_35">
      <path d="M 317.323636 307.584 
L 317.323636 41.472 
" clip-path="url(#pb9235d4977)" style="fill: none; stroke-dasharray: 0.8,1.32; stroke-dashoffset: 0; stroke: #d3d3d3; stroke-width: 0.8"/>
     </g>
     <g id="line2d_36">
      <g>
       <use xlink:href="#m88d68b5d91" x="317.323636" y="307.584" style="stroke: #000000; stroke-width: 0.6"/>
      </g>
     </g>
    </g>
    <g id="xtick_19">
     <g id="line2d_37">
      <path d="M 349.789091 307.584 
L 349.789091 41.472 
" clip-path="url(#pb9235d4977)" style="fill: none; stroke-dasharray: 0.8,1.32; stroke-dashoffset: 0; stroke: #d3d3d3; stroke-width: 0.8"/>
     </g>
     <g id="line2d_38">
      <g>
       <use xlink:href="#m88d68b5d91" x="349.789091" y="307.584" style="stroke: #000000; stroke-width: 0.6"/>
      </g>
     </g>
    </g>
    <g id="xtick_20">
     <g id="line2d_39">
      <path d="M 366.021818 307.584 
L 366.021818 41.472 
" clip-path="url(#pb9235d4977)" style="fill: none; stroke-dasharray: 0.8,1.32; stroke-dashoffset: 0; stroke: #d3d3d3; stroke-width: 0.8"/>
     </g>
     <g id="line2d_40">
      <g>
       <use xlink:href="#m88d68b5d91" x="366.021818" y="307.584" style="stroke: #000000; stroke-width: 0.6"/>
      </g>
     </g>
    </g>
    <g id="xtick_21">
     <g id="line2d_41">
      <path d="M 382.254545 307.584 
L 382.254545 41.472 
" clip-path="url(#pb9235d4977)" style="fill: none; stroke-dasharray: 0.8,1.32; stroke-dashoffset: 0; stroke: #d3d3d3; stroke-width: 0.8"/>
     </g>
     <g id="line2d_42">
      <g>
       <use xlink:href="#m88d68b5d91" x="382.254545" y="307.584" style="stroke: #000000; stroke-width: 0.6"/>
      </g>
     </g>
    </g>
    <g id="text_7">
     <!-- Position ($x$) [m] -->
     <g transform="translate(204.46 334.413687) scale(0.1 -0.1)">
      <defs>
       <path id="STIXGeneral-Regular-50" d="M 102 4237 
L 1760 4237 
Q 2669 4237 3149 3834 
Q 3469 3565 3469 3072 
Q 3469 2560 3104 2234 
Q 2835 1990 2553 1916 
Q 2272 1843 1734 1843 
Q 1549 1843 1293 1862 
L 1293 717 
Q 1293 352 1398 246 
Q 1504 141 1894 122 
L 1894 0 
L 102 0 
L 102 122 
Q 474 147 557 256 
Q 640 365 640 781 
L 640 3526 
Q 640 3885 547 3987 
Q 454 4090 102 4115 
L 102 4237 
z
M 1293 3770 
L 1293 2118 
Q 1510 2099 1683 2099 
Q 2202 2099 2486 2352 
Q 2771 2605 2771 3040 
Q 2771 3558 2476 3779 
Q 2182 4000 1517 4000 
Q 1382 4000 1337 3952 
Q 1293 3904 1293 3770 
z
" transform="scale(0.015625)"/>
       <path id="STIXGeneral-Regular-6f" d="M 3008 1478 
Q 3008 806 2608 371 
Q 2208 -64 1568 -64 
Q 979 -64 582 368 
Q 186 800 186 1459 
Q 186 2125 582 2534 
Q 979 2944 1626 2944 
Q 2221 2944 2614 2537 
Q 3008 2131 3008 1478 
z
M 2432 1306 
Q 2432 2035 2112 2445 
Q 1856 2765 1504 2765 
Q 1171 2765 966 2493 
Q 762 2221 762 1747 
Q 762 928 1101 435 
Q 1318 115 1677 115 
Q 2029 115 2230 432 
Q 2432 749 2432 1306 
z
" transform="scale(0.015625)"/>
       <path id="STIXGeneral-Regular-73" d="M 998 1926 
L 1664 1523 
Q 1984 1331 2105 1164 
Q 2227 998 2227 736 
Q 2227 416 1961 176 
Q 1696 -64 1331 -64 
Q 1030 -64 864 -6 
Q 691 51 570 51 
Q 461 51 416 -26 
L 333 -26 
L 333 979 
L 435 979 
Q 538 512 730 294 
Q 922 77 1248 77 
Q 1485 77 1632 211 
Q 1779 346 1779 550 
Q 1779 845 1440 1030 
L 1094 1222 
Q 326 1651 326 2150 
Q 326 2522 566 2730 
Q 806 2938 1210 2938 
Q 1491 2938 1638 2867 
Q 1754 2816 1818 2816 
Q 1862 2816 1920 2880 
L 1990 2880 
L 2022 2010 
L 1926 2010 
Q 1818 2445 1654 2621 
Q 1491 2797 1203 2797 
Q 986 2797 854 2688 
Q 723 2579 723 2362 
Q 723 2253 796 2128 
Q 870 2003 998 1926 
z
" transform="scale(0.015625)"/>
       <path id="STIXGeneral-Regular-69" d="M 1152 4045 
Q 1152 3904 1056 3811 
Q 960 3718 819 3718 
Q 685 3718 592 3811 
Q 499 3904 499 4045 
Q 499 4179 595 4275 
Q 691 4371 826 4371 
Q 966 4371 1059 4275 
Q 1152 4179 1152 4045 
z
M 1619 0 
L 102 0 
L 102 96 
Q 435 115 521 211 
Q 608 307 608 666 
L 608 2118 
Q 608 2342 563 2432 
Q 518 2522 397 2522 
Q 243 2522 128 2490 
L 128 2592 
L 1120 2944 
L 1146 2918 
L 1146 672 
Q 1146 314 1226 218 
Q 1306 122 1619 96 
L 1619 0 
z
" transform="scale(0.015625)"/>
       <path id="STIXGeneral-Regular-74" d="M 1702 493 
L 1786 422 
Q 1478 -64 1011 -64 
Q 448 -64 448 749 
L 448 2675 
L 109 2675 
Q 83 2694 83 2720 
Q 83 2771 192 2842 
Q 435 2982 813 3526 
Q 826 3546 874 3606 
Q 922 3667 941 3706 
Q 986 3706 986 3622 
L 986 2880 
L 1632 2880 
L 1632 2675 
L 986 2675 
L 986 845 
Q 986 538 1062 403 
Q 1139 269 1318 269 
Q 1510 269 1702 493 
z
" transform="scale(0.015625)"/>
       <path id="STIXGeneral-Regular-6e" d="M 3104 0 
L 1773 0 
L 1779 96 
Q 2016 115 2096 233 
Q 2176 352 2176 672 
L 2176 1946 
Q 2176 2592 1709 2592 
Q 1549 2592 1408 2515 
Q 1267 2438 1050 2227 
L 1050 461 
Q 1050 269 1136 192 
Q 1222 115 1466 96 
L 1466 0 
L 115 0 
L 115 96 
Q 358 115 435 214 
Q 512 314 512 602 
L 512 2157 
Q 512 2394 467 2483 
Q 422 2573 288 2573 
Q 160 2573 102 2547 
L 102 2656 
Q 550 2784 979 2944 
L 1030 2925 
L 1030 2426 
L 1037 2426 
Q 1491 2944 1958 2944 
Q 2323 2944 2518 2688 
Q 2714 2432 2714 1958 
L 2714 544 
Q 2714 288 2790 205 
Q 2867 122 3104 96 
L 3104 0 
z
" transform="scale(0.015625)"/>
       <path id="STIXGeneral-Regular-20" transform="scale(0.015625)"/>
       <path id="STIXGeneral-Regular-28" d="M 1946 -1030 
L 1869 -1133 
Q 1126 -710 716 32 
Q 307 774 307 1613 
Q 307 3386 1888 4326 
L 1946 4224 
Q 1293 3667 1075 3126 
Q 858 2586 858 1632 
Q 858 685 1082 96 
Q 1306 -493 1946 -1030 
z
" transform="scale(0.015625)"/>
       <path id="STIXGeneral-Italic-78" d="M 1555 2272 
L 1632 1907 
Q 1971 2426 2179 2624 
Q 2387 2822 2598 2822 
Q 2714 2822 2787 2755 
Q 2861 2688 2861 2585 
Q 2861 2483 2800 2419 
Q 2739 2355 2643 2355 
Q 2586 2355 2490 2409 
Q 2394 2464 2310 2464 
Q 2125 2464 1683 1690 
Q 1683 1606 1734 1402 
L 1939 544 
Q 2003 282 2131 282 
Q 2234 282 2432 538 
Q 2451 563 2476 598 
Q 2502 634 2521 662 
Q 2541 691 2566 717 
L 2662 659 
Q 2387 230 2227 80 
Q 2067 -70 1882 -70 
Q 1728 -70 1645 26 
Q 1562 122 1504 365 
L 1318 1126 
L 755 365 
Q 557 96 432 13 
Q 307 -70 147 -70 
Q 0 -70 -86 0 
Q -173 70 -173 198 
Q -173 294 -112 361 
Q -51 429 45 429 
Q 122 429 250 358 
Q 346 301 416 301 
Q 525 301 742 614 
L 1267 1357 
L 1088 2150 
Q 1024 2432 969 2509 
Q 915 2586 794 2586 
Q 717 2586 544 2541 
L 429 2509 
L 410 2611 
L 480 2637 
Q 992 2822 1229 2822 
Q 1350 2822 1420 2707 
Q 1491 2592 1555 2272 
z
" transform="scale(0.015625)"/>
       <path id="STIXGeneral-Regular-29" d="M 186 4224 
L 262 4326 
Q 992 3891 1408 3148 
Q 1824 2406 1824 1581 
Q 1824 -166 243 -1133 
L 186 -1030 
Q 845 -486 1059 54 
Q 1274 595 1274 1562 
Q 1274 2534 1059 3120 
Q 845 3706 186 4224 
z
" transform="scale(0.015625)"/>
       <path id="STIXGeneral-Regular-5b" d="M 1914 -998 
L 563 -998 
L 563 4237 
L 1914 4237 
L 1914 4077 
L 1382 4077 
Q 1216 4077 1133 4006 
Q 1050 3936 1050 3770 
L 1050 -493 
Q 1050 -838 1382 -838 
L 1914 -838 
L 1914 -998 
z
" transform="scale(0.015625)"/>
       <path id="STIXGeneral-Regular-6d" d="M 4960 0 
L 3565 0 
L 3565 96 
Q 3834 122 3907 208 
Q 3981 294 3981 576 
L 3981 1894 
Q 3981 2278 3869 2444 
Q 3757 2611 3488 2611 
Q 3264 2611 3107 2521 
Q 2950 2432 2803 2221 
L 2803 608 
Q 2803 301 2896 201 
Q 2989 102 3264 96 
L 3264 0 
L 1830 0 
L 1830 96 
Q 2112 115 2189 188 
Q 2266 262 2266 550 
L 2266 1901 
Q 2266 2611 1850 2611 
Q 1670 2611 1468 2531 
Q 1267 2451 1171 2336 
Q 1088 2240 1088 2227 
L 1088 448 
Q 1088 243 1177 176 
Q 1267 109 1523 96 
L 1523 0 
L 102 0 
L 102 96 
Q 371 102 460 195 
Q 550 288 550 563 
L 550 2150 
Q 550 2387 499 2480 
Q 448 2573 326 2573 
Q 230 2573 122 2547 
L 122 2656 
Q 557 2778 1011 2944 
L 1062 2925 
L 1062 2451 
L 1075 2451 
Q 1363 2752 1584 2848 
Q 1805 2944 2054 2944 
Q 2560 2944 2733 2406 
Q 3232 2944 3776 2944 
Q 4518 2944 4518 1792 
L 4518 493 
Q 4518 282 4582 202 
Q 4646 122 4794 109 
L 4960 96 
L 4960 0 
z
" transform="scale(0.015625)"/>
       <path id="STIXGeneral-Regular-5d" d="M 1568 -998 
L 218 -998 
L 218 -838 
L 781 -838 
Q 947 -838 1014 -768 
Q 1082 -698 1082 -544 
L 1082 3731 
Q 1082 4077 755 4077 
L 218 4077 
L 218 4237 
L 1568 4237 
L 1568 -998 
z
" transform="scale(0.015625)"/>
      </defs>
      <use xlink:href="#STIXGeneral-Regular-50" transform="translate(0 0.703125)"/>
      <use xlink:href="#STIXGeneral-Regular-6f" transform="translate(55.699997 0.703125)"/>
      <use xlink:href="#STIXGeneral-Regular-73" transform="translate(105.699982 0.703125)"/>
      <use xlink:href="#STIXGeneral-Regular-69" transform="translate(144.599976 0.703125)"/>
      <use xlink:href="#STIXGeneral-Regular-74" transform="translate(172.399963 0.703125)"/>
      <use xlink:href="#STIXGeneral-Regular-69" transform="translate(200.199951 0.703125)"/>
      <use xlink:href="#STIXGeneral-Regular-6f" transform="translate(227.999939 0.703125)"/>
      <use xlink:href="#STIXGeneral-Regular-6e" transform="translate(277.999924 0.703125)"/>
      <use xlink:href="#STIXGeneral-Regular-20" transform="translate(327.999908 0.703125)"/>
      <use xlink:href="#STIXGeneral-Regular-28" transform="translate(352.999893 0.703125)"/>
      <use xlink:href="#STIXGeneral-Italic-78" transform="translate(386.299881 0.703125)"/>
      <use xlink:href="#STIXGeneral-Regular-29" transform="translate(430.699875 0.703125)"/>
      <use xlink:href="#STIXGeneral-Regular-20" transform="translate(463.999863 0.703125)"/>
      <use xlink:href="#STIXGeneral-Regular-5b" transform="translate(488.999847 0.703125)"/>
      <use xlink:href="#STIXGeneral-Regular-6d" transform="translate(522.299835 0.703125)"/>
      <use xlink:href="#STIXGeneral-Regular-5d" transform="translate(600.099823 0.703125)"/>
     </g>
    </g>
   </g>
   <g id="matplotlib.axis_2">
    <g id="ytick_1">
     <g id="line2d_43">
      <path d="M 57.6 295.488 
L 414.72 295.488 
" clip-path="url(#pb9235d4977)" style="fill: none; stroke: #d3d3d3; stroke-width: 0.8; stroke-linecap: square"/>
     </g>
     <g id="line2d_44">
      <defs>
       <path id="m85cd0f8228" d="M 0 0 
L -3.5 0 
" style="stroke: #000000; stroke-width: 0.8"/>
      </defs>
      <g>
       <use xlink:href="#m85cd0f8228" x="57.6" y="295.488" style="stroke: #000000; stroke-width: 0.8"/>
      </g>
     </g>
     <g id="text_8">
      <!-- −0.010 -->
      <g transform="translate(21.25 298.902844) scale(0.1 -0.1)">
       <defs>
        <path id="STIXGeneral-Regular-2212" d="M 3974 1408 
L 410 1408 
L 410 1830 
L 3974 1830 
L 3974 1408 
z
" transform="scale(0.015625)"/>
       </defs>
       <use xlink:href="#STIXGeneral-Regular-2212"/>
       <use xlink:href="#STIXGeneral-Regular-30" x="68.499985"/>
       <use xlink:href="#STIXGeneral-Regular-2e" x="118.499969"/>
       <use xlink:href="#STIXGeneral-Regular-30" x="143.499954"/>
       <use xlink:href="#STIXGeneral-Regular-31" x="193.499939"/>
       <use xlink:href="#STIXGeneral-Regular-30" x="243.499924"/>
      </g>
     </g>
    </g>
    <g id="ytick_2">
     <g id="line2d_45">
      <path d="M 57.6 262.47403 
L 414.72 262.47403 
" clip-path="url(#pb9235d4977)" style="fill: none; stroke: #d3d3d3; stroke-width: 0.8; stroke-linecap: square"/>
     </g>
     <g id="line2d_46">
      <g>
       <use xlink:href="#m85cd0f8228" x="57.6" y="262.47403" style="stroke: #000000; stroke-width: 0.8"/>
      </g>
     </g>
     <g id="text_9">
      <!-- −0.005 -->
      <g transform="translate(21.25 265.888874) scale(0.1 -0.1)">
       <defs>
        <path id="STIXGeneral-Regular-35" d="M 2803 4358 
L 2573 3814 
Q 2534 3731 2400 3731 
L 1158 3731 
L 902 3187 
Q 1606 3053 1920 2896 
Q 2234 2739 2502 2368 
Q 2726 2061 2726 1555 
Q 2726 1094 2576 780 
Q 2426 467 2099 224 
Q 1664 -90 1011 -90 
Q 646 -90 422 19 
Q 198 128 198 307 
Q 198 550 486 550 
Q 717 550 960 352 
Q 1210 147 1414 147 
Q 1747 147 2012 480 
Q 2278 813 2278 1229 
Q 2278 1843 1850 2189 
Q 1293 2637 486 2637 
Q 410 2637 410 2688 
L 416 2720 
L 1114 4237 
L 2438 4237 
Q 2547 4237 2608 4269 
Q 2669 4301 2746 4403 
L 2803 4358 
z
" transform="scale(0.015625)"/>
       </defs>
       <use xlink:href="#STIXGeneral-Regular-2212"/>
       <use xlink:href="#STIXGeneral-Regular-30" x="68.499985"/>
       <use xlink:href="#STIXGeneral-Regular-2e" x="118.499969"/>
       <use xlink:href="#STIXGeneral-Regular-30" x="143.499954"/>
       <use xlink:href="#STIXGeneral-Regular-30" x="193.499939"/>
       <use xlink:href="#STIXGeneral-Regular-35" x="243.499924"/>
      </g>
     </g>
    </g>
    <g id="ytick_3">
     <g id="line2d_47">
      <path d="M 57.6 229.46006 
L 414.72 229.46006 
" clip-path="url(#pb9235d4977)" style="fill: none; stroke: #d3d3d3; stroke-width: 0.8; stroke-linecap: square"/>
     </g>
     <g id="line2d_48">
      <g>
       <use xlink:href="#m85cd0f8228" x="57.6" y="229.46006" style="stroke: #000000; stroke-width: 0.8"/>
      </g>
     </g>
     <g id="text_10">
      <!-- 0.000 -->
      <g transform="translate(28.1 232.874904) scale(0.1 -0.1)">
       <use xlink:href="#STIXGeneral-Regular-30"/>
       <use xlink:href="#STIXGeneral-Regular-2e" x="49.999985"/>
       <use xlink:href="#STIXGeneral-Regular-30" x="74.999969"/>
       <use xlink:href="#STIXGeneral-Regular-30" x="124.999954"/>
       <use xlink:href="#STIXGeneral-Regular-30" x="174.999939"/>
      </g>
     </g>
    </g>
    <g id="ytick_4">
     <g id="line2d_49">
      <path d="M 57.6 196.446091 
L 414.72 196.446091 
" clip-path="url(#pb9235d4977)" style="fill: none; stroke: #d3d3d3; stroke-width: 0.8; stroke-linecap: square"/>
     </g>
     <g id="line2d_50">
      <g>
       <use xlink:href="#m85cd0f8228" x="57.6" y="196.446091" style="stroke: #000000; stroke-width: 0.8"/>
      </g>
     </g>
     <g id="text_11">
      <!-- 0.005 -->
      <g transform="translate(28.1 199.860934) scale(0.1 -0.1)">
       <use xlink:href="#STIXGeneral-Regular-30"/>
       <use xlink:href="#STIXGeneral-Regular-2e" x="49.999985"/>
       <use xlink:href="#STIXGeneral-Regular-30" x="74.999969"/>
       <use xlink:href="#STIXGeneral-Regular-30" x="124.999954"/>
       <use xlink:href="#STIXGeneral-Regular-35" x="174.999939"/>
      </g>
     </g>
    </g>
    <g id="ytick_5">
     <g id="line2d_51">
      <path d="M 57.6 163.432121 
L 414.72 163.432121 
" clip-path="url(#pb9235d4977)" style="fill: none; stroke: #d3d3d3; stroke-width: 0.8; stroke-linecap: square"/>
     </g>
     <g id="line2d_52">
      <g>
       <use xlink:href="#m85cd0f8228" x="57.6" y="163.432121" style="stroke: #000000; stroke-width: 0.8"/>
      </g>
     </g>
     <g id="text_12">
      <!-- 0.010 -->
      <g transform="translate(28.1 166.846965) scale(0.1 -0.1)">
       <use xlink:href="#STIXGeneral-Regular-30"/>
       <use xlink:href="#STIXGeneral-Regular-2e" x="49.999985"/>
       <use xlink:href="#STIXGeneral-Regular-30" x="74.999969"/>
       <use xlink:href="#STIXGeneral-Regular-31" x="124.999954"/>
       <use xlink:href="#STIXGeneral-Regular-30" x="174.999939"/>
      </g>
     </g>
    </g>
    <g id="ytick_6">
     <g id="line2d_53">
      <path d="M 57.6 130.418151 
L 414.72 130.418151 
" clip-path="url(#pb9235d4977)" style="fill: none; stroke: #d3d3d3; stroke-width: 0.8; stroke-linecap: square"/>
     </g>
     <g id="line2d_54">
      <g>
       <use xlink:href="#m85cd0f8228" x="57.6" y="130.418151" style="stroke: #000000; stroke-width: 0.8"/>
      </g>
     </g>
     <g id="text_13">
      <!-- 0.015 -->
      <g transform="translate(28.1 133.832995) scale(0.1 -0.1)">
       <use xlink:href="#STIXGeneral-Regular-30"/>
       <use xlink:href="#STIXGeneral-Regular-2e" x="49.999985"/>
       <use xlink:href="#STIXGeneral-Regular-30" x="74.999969"/>
       <use xlink:href="#STIXGeneral-Regular-31" x="124.999954"/>
       <use xlink:href="#STIXGeneral-Regular-35" x="174.999939"/>
      </g>
     </g>
    </g>
    <g id="ytick_7">
     <g id="line2d_55">
      <path d="M 57.6 97.404181 
L 414.72 97.404181 
" clip-path="url(#pb9235d4977)" style="fill: none; stroke: #d3d3d3; stroke-width: 0.8; stroke-linecap: square"/>
     </g>
     <g id="line2d_56">
      <g>
       <use xlink:href="#m85cd0f8228" x="57.6" y="97.404181" style="stroke: #000000; stroke-width: 0.8"/>
      </g>
     </g>
     <g id="text_14">
      <!-- 0.020 -->
      <g transform="translate(28.1 100.819025) scale(0.1 -0.1)">
       <use xlink:href="#STIXGeneral-Regular-30"/>
       <use xlink:href="#STIXGeneral-Regular-2e" x="49.999985"/>
       <use xlink:href="#STIXGeneral-Regular-30" x="74.999969"/>
       <use xlink:href="#STIXGeneral-Regular-32" x="124.999954"/>
       <use xlink:href="#STIXGeneral-Regular-30" x="174.999939"/>
      </g>
     </g>
    </g>
    <g id="ytick_8">
     <g id="line2d_57">
      <path d="M 57.6 64.390212 
L 414.72 64.390212 
" clip-path="url(#pb9235d4977)" style="fill: none; stroke: #d3d3d3; stroke-width: 0.8; stroke-linecap: square"/>
     </g>
     <g id="line2d_58">
      <g>
       <use xlink:href="#m85cd0f8228" x="57.6" y="64.390212" style="stroke: #000000; stroke-width: 0.8"/>
      </g>
     </g>
     <g id="text_15">
      <!-- 0.025 -->
      <g transform="translate(28.1 67.805055) scale(0.1 -0.1)">
       <use xlink:href="#STIXGeneral-Regular-30"/>
       <use xlink:href="#STIXGeneral-Regular-2e" x="49.999985"/>
       <use xlink:href="#STIXGeneral-Regular-30" x="74.999969"/>
       <use xlink:href="#STIXGeneral-Regular-32" x="124.999954"/>
       <use xlink:href="#STIXGeneral-Regular-35" x="174.999939"/>
      </g>
     </g>
    </g>
    <g id="ytick_9">
     <g id="line2d_59">
      <path d="M 57.6 302.090794 
L 414.72 302.090794 
" clip-path="url(#pb9235d4977)" style="fill: none; stroke-dasharray: 0.8,1.32; stroke-dashoffset: 0; stroke: #d3d3d3; stroke-width: 0.8"/>
     </g>
     <g id="line2d_60">
      <defs>
       <path id="m8e5a3b9bd3" d="M 0 0 
L -2 0 
" style="stroke: #000000; stroke-width: 0.6"/>
      </defs>
      <g>
       <use xlink:href="#m8e5a3b9bd3" x="57.6" y="302.090794" style="stroke: #000000; stroke-width: 0.6"/>
      </g>
     </g>
    </g>
    <g id="ytick_10">
     <g id="line2d_61">
      <path d="M 57.6 288.885206 
L 414.72 288.885206 
" clip-path="url(#pb9235d4977)" style="fill: none; stroke-dasharray: 0.8,1.32; stroke-dashoffset: 0; stroke: #d3d3d3; stroke-width: 0.8"/>
     </g>
     <g id="line2d_62">
      <g>
       <use xlink:href="#m8e5a3b9bd3" x="57.6" y="288.885206" style="stroke: #000000; stroke-width: 0.6"/>
      </g>
     </g>
    </g>
    <g id="ytick_11">
     <g id="line2d_63">
      <path d="M 57.6 282.282412 
L 414.72 282.282412 
" clip-path="url(#pb9235d4977)" style="fill: none; stroke-dasharray: 0.8,1.32; stroke-dashoffset: 0; stroke: #d3d3d3; stroke-width: 0.8"/>
     </g>
     <g id="line2d_64">
      <g>
       <use xlink:href="#m8e5a3b9bd3" x="57.6" y="282.282412" style="stroke: #000000; stroke-width: 0.6"/>
      </g>
     </g>
    </g>
    <g id="ytick_12">
     <g id="line2d_65">
      <path d="M 57.6 275.679618 
L 414.72 275.679618 
" clip-path="url(#pb9235d4977)" style="fill: none; stroke-dasharray: 0.8,1.32; stroke-dashoffset: 0; stroke: #d3d3d3; stroke-width: 0.8"/>
     </g>
     <g id="line2d_66">
      <g>
       <use xlink:href="#m8e5a3b9bd3" x="57.6" y="275.679618" style="stroke: #000000; stroke-width: 0.6"/>
      </g>
     </g>
    </g>
    <g id="ytick_13">
     <g id="line2d_67">
      <path d="M 57.6 269.076824 
L 414.72 269.076824 
" clip-path="url(#pb9235d4977)" style="fill: none; stroke-dasharray: 0.8,1.32; stroke-dashoffset: 0; stroke: #d3d3d3; stroke-width: 0.8"/>
     </g>
     <g id="line2d_68">
      <g>
       <use xlink:href="#m8e5a3b9bd3" x="57.6" y="269.076824" style="stroke: #000000; stroke-width: 0.6"/>
      </g>
     </g>
    </g>
    <g id="ytick_14">
     <g id="line2d_69">
      <path d="M 57.6 255.871236 
L 414.72 255.871236 
" clip-path="url(#pb9235d4977)" style="fill: none; stroke-dasharray: 0.8,1.32; stroke-dashoffset: 0; stroke: #d3d3d3; stroke-width: 0.8"/>
     </g>
     <g id="line2d_70">
      <g>
       <use xlink:href="#m8e5a3b9bd3" x="57.6" y="255.871236" style="stroke: #000000; stroke-width: 0.6"/>
      </g>
     </g>
    </g>
    <g id="ytick_15">
     <g id="line2d_71">
      <path d="M 57.6 249.268442 
L 414.72 249.268442 
" clip-path="url(#pb9235d4977)" style="fill: none; stroke-dasharray: 0.8,1.32; stroke-dashoffset: 0; stroke: #d3d3d3; stroke-width: 0.8"/>
     </g>
     <g id="line2d_72">
      <g>
       <use xlink:href="#m8e5a3b9bd3" x="57.6" y="249.268442" style="stroke: #000000; stroke-width: 0.6"/>
      </g>
     </g>
    </g>
    <g id="ytick_16">
     <g id="line2d_73">
      <path d="M 57.6 242.665648 
L 414.72 242.665648 
" clip-path="url(#pb9235d4977)" style="fill: none; stroke-dasharray: 0.8,1.32; stroke-dashoffset: 0; stroke: #d3d3d3; stroke-width: 0.8"/>
     </g>
     <g id="line2d_74">
      <g>
       <use xlink:href="#m8e5a3b9bd3" x="57.6" y="242.665648" style="stroke: #000000; stroke-width: 0.6"/>
      </g>
     </g>
    </g>
    <g id="ytick_17">
     <g id="line2d_75">
      <path d="M 57.6 236.062854 
L 414.72 236.062854 
" clip-path="url(#pb9235d4977)" style="fill: none; stroke-dasharray: 0.8,1.32; stroke-dashoffset: 0; stroke: #d3d3d3; stroke-width: 0.8"/>
     </g>
     <g id="line2d_76">
      <g>
       <use xlink:href="#m8e5a3b9bd3" x="57.6" y="236.062854" style="stroke: #000000; stroke-width: 0.6"/>
      </g>
     </g>
    </g>
    <g id="ytick_18">
     <g id="line2d_77">
      <path d="M 57.6 222.857267 
L 414.72 222.857267 
" clip-path="url(#pb9235d4977)" style="fill: none; stroke-dasharray: 0.8,1.32; stroke-dashoffset: 0; stroke: #d3d3d3; stroke-width: 0.8"/>
     </g>
     <g id="line2d_78">
      <g>
       <use xlink:href="#m8e5a3b9bd3" x="57.6" y="222.857267" style="stroke: #000000; stroke-width: 0.6"/>
      </g>
     </g>
    </g>
    <g id="ytick_19">
     <g id="line2d_79">
      <path d="M 57.6 216.254473 
L 414.72 216.254473 
" clip-path="url(#pb9235d4977)" style="fill: none; stroke-dasharray: 0.8,1.32; stroke-dashoffset: 0; stroke: #d3d3d3; stroke-width: 0.8"/>
     </g>
     <g id="line2d_80">
      <g>
       <use xlink:href="#m8e5a3b9bd3" x="57.6" y="216.254473" style="stroke: #000000; stroke-width: 0.6"/>
      </g>
     </g>
    </g>
    <g id="ytick_20">
     <g id="line2d_81">
      <path d="M 57.6 209.651679 
L 414.72 209.651679 
" clip-path="url(#pb9235d4977)" style="fill: none; stroke-dasharray: 0.8,1.32; stroke-dashoffset: 0; stroke: #d3d3d3; stroke-width: 0.8"/>
     </g>
     <g id="line2d_82">
      <g>
       <use xlink:href="#m8e5a3b9bd3" x="57.6" y="209.651679" style="stroke: #000000; stroke-width: 0.6"/>
      </g>
     </g>
    </g>
    <g id="ytick_21">
     <g id="line2d_83">
      <path d="M 57.6 203.048885 
L 414.72 203.048885 
" clip-path="url(#pb9235d4977)" style="fill: none; stroke-dasharray: 0.8,1.32; stroke-dashoffset: 0; stroke: #d3d3d3; stroke-width: 0.8"/>
     </g>
     <g id="line2d_84">
      <g>
       <use xlink:href="#m8e5a3b9bd3" x="57.6" y="203.048885" style="stroke: #000000; stroke-width: 0.6"/>
      </g>
     </g>
    </g>
    <g id="ytick_22">
     <g id="line2d_85">
      <path d="M 57.6 189.843297 
L 414.72 189.843297 
" clip-path="url(#pb9235d4977)" style="fill: none; stroke-dasharray: 0.8,1.32; stroke-dashoffset: 0; stroke: #d3d3d3; stroke-width: 0.8"/>
     </g>
     <g id="line2d_86">
      <g>
       <use xlink:href="#m8e5a3b9bd3" x="57.6" y="189.843297" style="stroke: #000000; stroke-width: 0.6"/>
      </g>
     </g>
    </g>
    <g id="ytick_23">
     <g id="line2d_87">
      <path d="M 57.6 183.240503 
L 414.72 183.240503 
" clip-path="url(#pb9235d4977)" style="fill: none; stroke-dasharray: 0.8,1.32; stroke-dashoffset: 0; stroke: #d3d3d3; stroke-width: 0.8"/>
     </g>
     <g id="line2d_88">
      <g>
       <use xlink:href="#m8e5a3b9bd3" x="57.6" y="183.240503" style="stroke: #000000; stroke-width: 0.6"/>
      </g>
     </g>
    </g>
    <g id="ytick_24">
     <g id="line2d_89">
      <path d="M 57.6 176.637709 
L 414.72 176.637709 
" clip-path="url(#pb9235d4977)" style="fill: none; stroke-dasharray: 0.8,1.32; stroke-dashoffset: 0; stroke: #d3d3d3; stroke-width: 0.8"/>
     </g>
     <g id="line2d_90">
      <g>
       <use xlink:href="#m8e5a3b9bd3" x="57.6" y="176.637709" style="stroke: #000000; stroke-width: 0.6"/>
      </g>
     </g>
    </g>
    <g id="ytick_25">
     <g id="line2d_91">
      <path d="M 57.6 170.034915 
L 414.72 170.034915 
" clip-path="url(#pb9235d4977)" style="fill: none; stroke-dasharray: 0.8,1.32; stroke-dashoffset: 0; stroke: #d3d3d3; stroke-width: 0.8"/>
     </g>
     <g id="line2d_92">
      <g>
       <use xlink:href="#m8e5a3b9bd3" x="57.6" y="170.034915" style="stroke: #000000; stroke-width: 0.6"/>
      </g>
     </g>
    </g>
    <g id="ytick_26">
     <g id="line2d_93">
      <path d="M 57.6 156.829327 
L 414.72 156.829327 
" clip-path="url(#pb9235d4977)" style="fill: none; stroke-dasharray: 0.8,1.32; stroke-dashoffset: 0; stroke: #d3d3d3; stroke-width: 0.8"/>
     </g>
     <g id="line2d_94">
      <g>
       <use xlink:href="#m8e5a3b9bd3" x="57.6" y="156.829327" style="stroke: #000000; stroke-width: 0.6"/>
      </g>
     </g>
    </g>
    <g id="ytick_27">
     <g id="line2d_95">
      <path d="M 57.6 150.226533 
L 414.72 150.226533 
" clip-path="url(#pb9235d4977)" style="fill: none; stroke-dasharray: 0.8,1.32; stroke-dashoffset: 0; stroke: #d3d3d3; stroke-width: 0.8"/>
     </g>
     <g id="line2d_96">
      <g>
       <use xlink:href="#m8e5a3b9bd3" x="57.6" y="150.226533" style="stroke: #000000; stroke-width: 0.6"/>
      </g>
     </g>
    </g>
    <g id="ytick_28">
     <g id="line2d_97">
      <path d="M 57.6 143.623739 
L 414.72 143.623739 
" clip-path="url(#pb9235d4977)" style="fill: none; stroke-dasharray: 0.8,1.32; stroke-dashoffset: 0; stroke: #d3d3d3; stroke-width: 0.8"/>
     </g>
     <g id="line2d_98">
      <g>
       <use xlink:href="#m8e5a3b9bd3" x="57.6" y="143.623739" style="stroke: #000000; stroke-width: 0.6"/>
      </g>
     </g>
    </g>
    <g id="ytick_29">
     <g id="line2d_99">
      <path d="M 57.6 137.020945 
L 414.72 137.020945 
" clip-path="url(#pb9235d4977)" style="fill: none; stroke-dasharray: 0.8,1.32; stroke-dashoffset: 0; stroke: #d3d3d3; stroke-width: 0.8"/>
     </g>
     <g id="line2d_100">
      <g>
       <use xlink:href="#m8e5a3b9bd3" x="57.6" y="137.020945" style="stroke: #000000; stroke-width: 0.6"/>
      </g>
     </g>
    </g>
    <g id="ytick_30">
     <g id="line2d_101">
      <path d="M 57.6 123.815357 
L 414.72 123.815357 
" clip-path="url(#pb9235d4977)" style="fill: none; stroke-dasharray: 0.8,1.32; stroke-dashoffset: 0; stroke: #d3d3d3; stroke-width: 0.8"/>
     </g>
     <g id="line2d_102">
      <g>
       <use xlink:href="#m8e5a3b9bd3" x="57.6" y="123.815357" style="stroke: #000000; stroke-width: 0.6"/>
      </g>
     </g>
    </g>
    <g id="ytick_31">
     <g id="line2d_103">
      <path d="M 57.6 117.212563 
L 414.72 117.212563 
" clip-path="url(#pb9235d4977)" style="fill: none; stroke-dasharray: 0.8,1.32; stroke-dashoffset: 0; stroke: #d3d3d3; stroke-width: 0.8"/>
     </g>
     <g id="line2d_104">
      <g>
       <use xlink:href="#m8e5a3b9bd3" x="57.6" y="117.212563" style="stroke: #000000; stroke-width: 0.6"/>
      </g>
     </g>
    </g>
    <g id="ytick_32">
     <g id="line2d_105">
      <path d="M 57.6 110.609769 
L 414.72 110.609769 
" clip-path="url(#pb9235d4977)" style="fill: none; stroke-dasharray: 0.8,1.32; stroke-dashoffset: 0; stroke: #d3d3d3; stroke-width: 0.8"/>
     </g>
     <g id="line2d_106">
      <g>
       <use xlink:href="#m8e5a3b9bd3" x="57.6" y="110.609769" style="stroke: #000000; stroke-width: 0.6"/>
      </g>
     </g>
    </g>
    <g id="ytick_33">
     <g id="line2d_107">
      <path d="M 57.6 104.006975 
L 414.72 104.006975 
" clip-path="url(#pb9235d4977)" style="fill: none; stroke-dasharray: 0.8,1.32; stroke-dashoffset: 0; stroke: #d3d3d3; stroke-width: 0.8"/>
     </g>
     <g id="line2d_108">
      <g>
       <use xlink:href="#m8e5a3b9bd3" x="57.6" y="104.006975" style="stroke: #000000; stroke-width: 0.6"/>
      </g>
     </g>
    </g>
    <g id="ytick_34">
     <g id="line2d_109">
      <path d="M 57.6 90.801387 
L 414.72 90.801387 
" clip-path="url(#pb9235d4977)" style="fill: none; stroke-dasharray: 0.8,1.32; stroke-dashoffset: 0; stroke: #d3d3d3; stroke-width: 0.8"/>
     </g>
     <g id="line2d_110">
      <g>
       <use xlink:href="#m8e5a3b9bd3" x="57.6" y="90.801387" style="stroke: #000000; stroke-width: 0.6"/>
      </g>
     </g>
    </g>
    <g id="ytick_35">
     <g id="line2d_111">
      <path d="M 57.6 84.198594 
L 414.72 84.198594 
" clip-path="url(#pb9235d4977)" style="fill: none; stroke-dasharray: 0.8,1.32; stroke-dashoffset: 0; stroke: #d3d3d3; stroke-width: 0.8"/>
     </g>
     <g id="line2d_112">
      <g>
       <use xlink:href="#m8e5a3b9bd3" x="57.6" y="84.198594" style="stroke: #000000; stroke-width: 0.6"/>
      </g>
     </g>
    </g>
    <g id="ytick_36">
     <g id="line2d_113">
      <path d="M 57.6 77.5958 
L 414.72 77.5958 
" clip-path="url(#pb9235d4977)" style="fill: none; stroke-dasharray: 0.8,1.32; stroke-dashoffset: 0; stroke: #d3d3d3; stroke-width: 0.8"/>
     </g>
     <g id="line2d_114">
      <g>
       <use xlink:href="#m8e5a3b9bd3" x="57.6" y="77.5958" style="stroke: #000000; stroke-width: 0.6"/>
      </g>
     </g>
    </g>
    <g id="ytick_37">
     <g id="line2d_115">
      <path d="M 57.6 70.993006 
L 414.72 70.993006 
" clip-path="url(#pb9235d4977)" style="fill: none; stroke-dasharray: 0.8,1.32; stroke-dashoffset: 0; stroke: #d3d3d3; stroke-width: 0.8"/>
     </g>
     <g id="line2d_116">
      <g>
       <use xlink:href="#m8e5a3b9bd3" x="57.6" y="70.993006" style="stroke: #000000; stroke-width: 0.6"/>
      </g>
     </g>
    </g>
    <g id="ytick_38">
     <g id="line2d_117">
      <path d="M 57.6 57.787418 
L 414.72 57.787418 
" clip-path="url(#pb9235d4977)" style="fill: none; stroke-dasharray: 0.8,1.32; stroke-dashoffset: 0; stroke: #d3d3d3; stroke-width: 0.8"/>
     </g>
     <g id="line2d_118">
      <g>
       <use xlink:href="#m8e5a3b9bd3" x="57.6" y="57.787418" style="stroke: #000000; stroke-width: 0.6"/>
      </g>
     </g>
    </g>
    <g id="ytick_39">
     <g id="line2d_119">
      <path d="M 57.6 51.184624 
L 414.72 51.184624 
" clip-path="url(#pb9235d4977)" style="fill: none; stroke-dasharray: 0.8,1.32; stroke-dashoffset: 0; stroke: #d3d3d3; stroke-width: 0.8"/>
     </g>
     <g id="line2d_120">
      <g>
       <use xlink:href="#m8e5a3b9bd3" x="57.6" y="51.184624" style="stroke: #000000; stroke-width: 0.6"/>
      </g>
     </g>
    </g>
    <g id="ytick_40">
     <g id="line2d_121">
      <path d="M 57.6 44.58183 
L 414.72 44.58183 
" clip-path="url(#pb9235d4977)" style="fill: none; stroke-dasharray: 0.8,1.32; stroke-dashoffset: 0; stroke: #d3d3d3; stroke-width: 0.8"/>
     </g>
     <g id="line2d_122">
      <g>
       <use xlink:href="#m8e5a3b9bd3" x="57.6" y="44.58183" style="stroke: #000000; stroke-width: 0.6"/>
      </g>
     </g>
    </g>
    <g id="text_16">
     <!-- Displacement ($u$) [m] -->
     <g transform="translate(15.05 217.578) rotate(-90) scale(0.1 -0.1)">
      <defs>
       <path id="STIXGeneral-Regular-44" d="M 102 4237 
L 1830 4237 
Q 3078 4237 3750 3654 
Q 4384 3110 4384 2138 
Q 4384 966 3514 410 
Q 2880 0 1901 0 
L 102 0 
L 102 122 
Q 474 147 570 252 
Q 666 358 666 736 
L 666 3520 
Q 666 3891 570 3990 
Q 474 4090 102 4115 
L 102 4237 
z
M 1318 3731 
L 1318 538 
Q 1318 365 1379 301 
Q 1440 237 1626 237 
Q 2125 237 2432 307 
Q 2739 378 3021 570 
Q 3686 1018 3686 2099 
Q 3686 3027 3078 3558 
Q 2803 3802 2476 3901 
Q 2150 4000 1658 4000 
Q 1472 4000 1395 3942 
Q 1318 3885 1318 3731 
z
" transform="scale(0.015625)"/>
       <path id="STIXGeneral-Regular-70" d="M 1018 2931 
L 1018 2438 
Q 1421 2944 1939 2944 
Q 2406 2944 2707 2560 
Q 3008 2176 3008 1581 
Q 3008 883 2621 409 
Q 2234 -64 1664 -64 
Q 1466 -64 1328 -6 
Q 1190 51 1018 211 
L 1018 -794 
Q 1018 -1094 1120 -1180 
Q 1222 -1267 1581 -1274 
L 1581 -1389 
L 32 -1389 
L 32 -1280 
Q 314 -1254 397 -1171 
Q 480 -1088 480 -838 
L 480 2157 
Q 480 2381 429 2451 
Q 378 2522 218 2522 
Q 115 2522 58 2515 
L 58 2618 
Q 506 2752 979 2944 
L 1018 2931 
z
M 1018 2138 
L 1018 563 
Q 1018 422 1238 281 
Q 1459 141 1683 141 
Q 2029 141 2243 467 
Q 2458 794 2458 1325 
Q 2458 1888 2243 2224 
Q 2029 2560 1670 2560 
Q 1446 2560 1232 2419 
Q 1018 2278 1018 2138 
z
" transform="scale(0.015625)"/>
       <path id="STIXGeneral-Regular-6c" d="M 1645 0 
L 134 0 
L 134 96 
Q 435 122 531 221 
Q 627 320 627 589 
L 627 3590 
Q 627 3821 569 3910 
Q 512 4000 358 4000 
Q 224 4000 122 3987 
L 122 4090 
Q 730 4237 1133 4371 
L 1165 4346 
L 1165 557 
Q 1165 288 1254 201 
Q 1344 115 1645 96 
L 1645 0 
z
" transform="scale(0.015625)"/>
       <path id="STIXGeneral-Regular-61" d="M 2829 422 
L 2829 243 
Q 2586 -64 2253 -64 
Q 1888 -64 1843 403 
L 1837 403 
Q 1427 -64 909 -64 
Q 608 -64 422 112 
Q 237 288 237 602 
Q 237 1050 685 1350 
Q 992 1555 1837 1869 
L 1837 2214 
Q 1837 2502 1699 2646 
Q 1562 2790 1338 2790 
Q 1146 2790 1018 2697 
Q 890 2605 890 2477 
Q 890 2419 909 2348 
Q 928 2278 928 2208 
Q 928 2112 841 2029 
Q 755 1946 634 1946 
Q 525 1946 441 2029 
Q 358 2112 358 2240 
Q 358 2547 685 2752 
Q 986 2944 1421 2944 
Q 1939 2944 2176 2656 
Q 2291 2522 2323 2384 
Q 2355 2246 2355 1946 
L 2355 723 
Q 2355 301 2554 301 
Q 2682 301 2829 422 
z
M 1837 813 
L 1837 1715 
Q 1248 1510 1018 1293 
Q 800 1094 800 800 
Q 800 557 921 432 
Q 1043 307 1242 307 
Q 1453 307 1613 410 
Q 1747 506 1792 589 
Q 1837 672 1837 813 
z
" transform="scale(0.015625)"/>
       <path id="STIXGeneral-Regular-63" d="M 2547 998 
L 2637 941 
Q 2362 403 2112 205 
Q 1786 -64 1376 -64 
Q 845 -64 502 336 
Q 160 736 160 1357 
Q 160 2170 698 2618 
Q 1094 2944 1562 2944 
Q 1965 2944 2256 2749 
Q 2547 2554 2547 2285 
Q 2547 2176 2457 2096 
Q 2368 2016 2246 2016 
Q 2022 2016 1939 2310 
L 1901 2451 
Q 1850 2630 1773 2694 
Q 1696 2758 1523 2758 
Q 1133 2758 893 2451 
Q 653 2144 653 1645 
Q 653 1094 928 745 
Q 1203 397 1645 397 
Q 1920 397 2118 528 
Q 2317 659 2547 998 
z
" transform="scale(0.015625)"/>
       <path id="STIXGeneral-Regular-65" d="M 2611 1050 
L 2714 1005 
Q 2330 -64 1376 -64 
Q 813 -64 486 329 
Q 160 723 160 1389 
Q 160 2074 525 2509 
Q 890 2944 1485 2944 
Q 2061 2944 2374 2502 
Q 2560 2246 2592 1773 
L 621 1773 
Q 646 1370 700 1158 
Q 755 947 915 730 
Q 1184 378 1626 378 
Q 1939 378 2153 531 
Q 2368 685 2611 1050 
z
M 634 1978 
L 1939 1978 
Q 1882 2381 1750 2547 
Q 1619 2714 1312 2714 
Q 1043 2714 864 2525 
Q 685 2336 634 1978 
z
" transform="scale(0.015625)"/>
       <path id="STIXGeneral-Italic-75" d="M 2950 762 
L 3040 704 
Q 2733 237 2560 89 
Q 2387 -58 2157 -58 
Q 1850 -58 1850 250 
Q 1850 538 2138 1510 
Q 1568 576 1257 253 
Q 947 -70 608 -70 
Q 269 -70 269 269 
Q 269 384 442 1088 
L 666 1978 
Q 755 2349 755 2406 
Q 755 2483 684 2521 
Q 614 2560 365 2560 
L 365 2650 
Q 806 2701 1325 2822 
L 1350 2803 
L 781 531 
Q 762 474 762 429 
Q 762 269 890 269 
Q 1178 269 1798 1210 
Q 2010 1530 2128 1795 
Q 2246 2061 2502 2765 
L 2976 2765 
L 2470 851 
Q 2349 390 2349 352 
Q 2349 243 2419 243 
Q 2496 243 2605 345 
Q 2714 448 2950 762 
z
" transform="scale(0.015625)"/>
      </defs>
      <use xlink:href="#STIXGeneral-Regular-44" transform="translate(0 0.703125)"/>
      <use xlink:href="#STIXGeneral-Regular-69" transform="translate(72.199982 0.703125)"/>
      <use xlink:href="#STIXGeneral-Regular-73" transform="translate(99.999969 0.703125)"/>
      <use xlink:href="#STIXGeneral-Regular-70" transform="translate(138.899963 0.703125)"/>
      <use xlink:href="#STIXGeneral-Regular-6c" transform="translate(188.899948 0.703125)"/>
      <use xlink:href="#STIXGeneral-Regular-61" transform="translate(216.699936 0.703125)"/>
      <use xlink:href="#STIXGeneral-Regular-63" transform="translate(261.09993 0.703125)"/>
      <use xlink:href="#STIXGeneral-Regular-65" transform="translate(305.499924 0.703125)"/>
      <use xlink:href="#STIXGeneral-Regular-6d" transform="translate(349.899918 0.703125)"/>
      <use xlink:href="#STIXGeneral-Regular-65" transform="translate(427.699905 0.703125)"/>
      <use xlink:href="#STIXGeneral-Regular-6e" transform="translate(472.099899 0.703125)"/>
      <use xlink:href="#STIXGeneral-Regular-74" transform="translate(522.099884 0.703125)"/>
      <use xlink:href="#STIXGeneral-Regular-20" transform="translate(549.899872 0.703125)"/>
      <use xlink:href="#STIXGeneral-Regular-28" transform="translate(574.899857 0.703125)"/>
      <use xlink:href="#STIXGeneral-Italic-75" transform="translate(608.199844 0.703125)"/>
      <use xlink:href="#STIXGeneral-Regular-29" transform="translate(658.199829 0.703125)"/>
      <use xlink:href="#STIXGeneral-Regular-20" transform="translate(691.499817 0.703125)"/>
      <use xlink:href="#STIXGeneral-Regular-5b" transform="translate(716.499802 0.703125)"/>
      <use xlink:href="#STIXGeneral-Regular-6d" transform="translate(749.799789 0.703125)"/>
      <use xlink:href="#STIXGeneral-Regular-5d" transform="translate(827.599777 0.703125)"/>
     </g>
    </g>
   </g>
   <g id="line2d_123">
    <path d="M 73.832727 295.488 
L 138.763636 126.688505 
L 203.694545 53.568 
L 268.625455 125.695639 
L 333.556364 226.299101 
L 398.487273 192.282799 
" clip-path="url(#pb9235d4977)" style="fill: none; stroke: #00ffff; stroke-linecap: square"/>
   </g>
   <g id="line2d_124">
    <path d="M 73.832727 295.488 
L 106.298182 226.616405 
L 138.763636 157.8697 
L 171.229091 107.681562 
L 203.694545 87.790968 
L 236.16 99.781225 
L 268.625455 134.613167 
L 301.090909 175.290152 
L 333.556364 201.869122 
L 366.021818 197.34036 
L 398.487273 152.642409 
" clip-path="url(#pb9235d4977)" style="fill: none; stroke: #40bfff; stroke-linecap: square"/>
   </g>
   <g id="line2d_125">
    <path d="M 73.832727 295.488 
L 90.065455 264.276697 
L 106.298182 230.354682 
L 122.530909 196.198847 
L 138.763636 164.224609 
L 154.996364 136.601063 
L 171.229091 115.084986 
L 187.461818 100.886398 
L 203.694545 94.575963 
L 219.927273 96.041316 
L 236.16 104.495664 
L 252.392727 118.537995 
L 268.625455 136.260295 
L 284.858182 155.393561 
L 301.090909 173.481443 
L 317.323636 188.06822 
L 333.556364 196.886728 
L 349.789091 198.03186 
L 366.021818 190.10636 
L 382.254545 172.327749 
L 398.487273 144.588205 
" clip-path="url(#pb9235d4977)" style="fill: none; stroke: #807fff; stroke-linecap: square"/>
   </g>
   <g id="line2d_126">
    <path d="M 73.832727 295.488 
L 81.949091 280.614358 
L 90.065455 264.74967 
L 98.181818 248.192875 
L 106.298182 231.251271 
L 114.414545 214.23458 
L 122.530909 197.448968 
L 130.647273 181.191128 
L 138.763636 165.742547 
L 146.88 151.364075 
L 154.996364 138.290881 
L 163.112727 126.727912 
L 171.229091 116.845934 
L 179.345455 108.778233 
L 187.461818 102.618043 
L 195.578182 98.41674 
L 203.694545 96.182854 
L 211.810909 95.881903 
L 219.927273 97.437058 
L 228.043636 100.730629 
L 236.16 105.606335 
L 244.276364 111.872327 
L 252.392727 119.304892 
L 260.509091 127.652773 
L 268.625455 136.642025 
L 276.741818 145.981303 
L 284.858182 155.367495 
L 292.974545 164.491573 
L 301.090909 173.044562 
L 309.207273 180.723512 
L 317.323636 187.237348 
L 325.44 192.31249 
L 333.556364 195.698142 
L 341.672727 197.171134 
L 349.789091 196.540233 
L 357.905455 193.649838 
L 366.021818 188.382983 
L 374.138182 180.663602 
L 382.254545 170.457991 
L 390.370909 157.775465 
L 398.487273 142.668175 
" clip-path="url(#pb9235d4977)" style="fill: none; stroke: #c03fff; stroke-linecap: square"/>
   </g>
   <g id="line2d_127">
    <path d="M 73.832727 295.488 
L 77.890909 288.223372 
L 81.949091 280.674097 
L 86.007273 272.876252 
L 90.065455 264.866797 
L 94.123636 256.683409 
L 98.181818 248.364288 
L 102.24 239.947982 
L 106.298182 231.47319 
L 110.356364 222.978586 
L 114.414545 214.502623 
L 118.472727 206.08335 
L 122.530909 197.758229 
L 126.589091 189.563952 
L 130.647273 181.536262 
L 134.705455 173.709785 
L 138.763636 166.117857 
L 142.821818 158.792365 
L 146.88 151.763594 
L 150.938182 145.060076 
L 154.996364 138.708457 
L 159.054545 132.733365 
L 163.112727 127.157292 
L 167.170909 122.000484 
L 171.229091 117.280843 
L 175.287273 113.013843 
L 179.345455 109.212451 
L 183.403636 105.887067 
L 187.461818 103.045474 
L 191.52 100.692797 
L 195.578182 98.831482 
L 199.636364 97.461282 
L 203.694545 96.579261 
L 207.752727 96.179802 
L 211.810909 96.254641 
L 215.869091 96.792905 
L 219.927273 97.78116 
L 223.985455 99.203484 
L 228.043636 101.041537 
L 232.101818 103.274655 
L 236.16 105.879947 
L 240.218182 108.832405 
L 244.276364 112.10503 
L 248.334545 115.668955 
L 252.392727 119.493592 
L 256.450909 123.546778 
L 260.509091 127.794926 
L 264.567273 132.203196 
L 268.625455 136.735655 
L 272.683636 141.355458 
L 276.741818 146.025023 
L 280.8 150.70621 
L 284.858182 155.360514 
L 288.916364 159.949243 
L 292.974545 164.43371 
L 297.032727 168.775417 
L 301.090909 172.936246 
L 305.149091 176.878639 
L 309.207273 180.565783 
L 313.265455 183.961785 
L 317.323636 187.031849 
L 321.381818 189.742441 
L 325.44 192.061458 
L 329.498182 193.958373 
L 333.556364 195.404392 
L 337.614545 196.372589 
L 341.672727 196.838037 
L 345.730909 196.77793 
L 349.789091 196.171691 
L 353.847273 195.001074 
L 357.905455 193.25025 
L 361.963636 190.905886 
L 366.021818 187.957208 
L 370.08 184.396054 
L 374.138182 180.216913 
L 378.196364 175.416951 
L 382.254545 169.996025 
L 386.312727 163.956687 
L 390.370909 157.304166 
L 394.429091 150.046347 
L 398.487273 142.19373 
" clip-path="url(#pb9235d4977)" style="fill: none; stroke: #ff00ff; stroke-linecap: square"/>
   </g>
   <g id="line2d_128">
    <path d="M 73.832727 295.488 
L 78.70742 286.738186 
L 84.232072 276.340878 
L 90.406683 264.2246 
L 97.881212 249.040671 
L 109.580475 224.682578 
L 122.254676 198.423527 
L 129.729206 183.449407 
L 135.903817 171.563488 
L 141.428468 161.403167 
L 146.303161 152.87576 
L 150.852875 145.333424 
L 155.077609 138.723877 
L 159.302342 132.522329 
L 163.202097 127.181852 
L 167.101851 122.228462 
L 170.676626 118.041504 
L 174.2514 114.203886 
L 177.501196 111.026064 
L 180.750991 108.150397 
L 184.000786 105.581632 
L 186.925602 103.535197 
L 189.850418 101.742253 
L 192.775233 100.203992 
L 195.700049 98.920882 
L 198.624865 97.892663 
L 201.549681 97.118349 
L 204.474496 96.596233 
L 207.399312 96.323887 
L 210.324128 96.298168 
L 213.248943 96.515231 
L 216.173759 96.970533 
L 219.098575 97.658849 
L 222.023391 98.574282 
L 224.948206 99.710277 
L 228.198002 101.22241 
L 231.447797 102.987182 
L 234.697592 104.992916 
L 238.272367 107.46252 
L 242.172121 110.450769 
L 246.071876 113.721809 
L 250.296609 117.553999 
L 254.846323 121.977006 
L 260.045995 127.349467 
L 266.220606 134.072714 
L 274.345094 143.282766 
L 290.91905 162.162737 
L 297.093661 168.811521 
L 302.293333 174.090325 
L 306.843047 178.403133 
L 311.067781 182.104847 
L 314.967535 185.227309 
L 318.54231 187.814469 
L 322.117084 190.115224 
L 325.36688 191.940022 
L 328.616675 193.494594 
L 331.541491 194.650346 
L 334.466306 195.564817 
L 337.391122 196.228198 
L 339.990958 196.599581 
L 342.590794 196.759121 
L 345.190631 196.701059 
L 347.790467 196.420018 
L 350.390303 195.911008 
L 352.990139 195.169442 
L 355.589975 194.191142 
L 358.189812 192.972346 
L 360.789648 191.509719 
L 363.389484 189.800358 
L 365.98932 187.841797 
L 368.914136 185.33804 
L 371.838952 182.514136 
L 374.763767 179.368599 
L 377.688583 175.90067 
L 380.613399 172.110314 
L 383.863194 167.521522 
L 387.112989 162.537545 
L 390.362785 157.161482 
L 393.937559 150.799984 
L 397.512334 143.976225 
L 398.487273 142.03607 
L 398.487273 142.03607 
" clip-path="url(#pb9235d4977)" style="fill: none; stroke: #ff0000; stroke-linecap: square"/>
   </g>
   <g id="patch_3">
    <path d="M 57.6 307.584 
L 57.6 41.472 
" style="fill: none; stroke: #000000; stroke-width: 0.8; stroke-linejoin: miter; stroke-linecap: square"/>
   </g>
   <g id="patch_4">
    <path d="M 414.72 307.584 
L 414.72 41.472 
" style="fill: none; stroke: #000000; stroke-width: 0.8; stroke-linejoin: miter; stroke-linecap: square"/>
   </g>
   <g id="patch_5">
    <path d="M 57.6 307.584 
L 414.72 307.584 
" style="fill: none; stroke: #000000; stroke-width: 0.8; stroke-linejoin: miter; stroke-linecap: square"/>
   </g>
   <g id="patch_6">
    <path d="M 57.6 41.472 
L 414.72 41.472 
" style="fill: none; stroke: #000000; stroke-width: 0.8; stroke-linejoin: miter; stroke-linecap: square"/>
   </g>
   <g id="text_17">
    <!-- Displacement solution using the Finite Element Method -->
    <g transform="translate(101.824688 35.472) scale(0.12 -0.12)">
     <defs>
      <path id="STIXGeneral-Regular-75" d="M 3072 320 
L 3072 230 
Q 2573 96 2195 -58 
L 2163 -38 
L 2163 486 
L 2150 486 
Q 1747 -64 1235 -64 
Q 870 -64 662 160 
Q 454 384 454 755 
L 454 2362 
Q 454 2598 371 2688 
Q 288 2778 58 2790 
L 58 2880 
L 992 2880 
L 992 813 
Q 992 595 1123 451 
Q 1254 307 1446 307 
Q 1760 307 1984 506 
Q 2067 582 2099 649 
Q 2131 717 2131 877 
L 2131 2355 
Q 2131 2605 2041 2678 
Q 1952 2752 1658 2771 
L 1658 2880 
L 2669 2880 
L 2669 685 
Q 2669 461 2742 390 
Q 2816 320 3034 320 
L 3072 320 
z
" transform="scale(0.015625)"/>
      <path id="STIXGeneral-Regular-67" d="M 3008 2483 
L 2477 2483 
Q 2598 2208 2598 1946 
Q 2598 1453 2265 1203 
Q 1933 954 1600 954 
Q 1530 954 1357 973 
L 1235 986 
Q 1107 947 979 812 
Q 851 678 851 582 
Q 851 435 1350 410 
L 2176 371 
Q 2528 358 2739 172 
Q 2950 -13 2950 -314 
Q 2950 -685 2566 -986 
Q 2035 -1395 1286 -1395 
Q 826 -1395 502 -1212 
Q 179 -1030 179 -774 
Q 179 -595 320 -419 
Q 461 -243 806 6 
Q 602 102 534 172 
Q 467 243 467 346 
Q 467 531 762 787 
Q 909 915 1037 1043 
Q 717 1203 579 1401 
Q 442 1600 442 1901 
Q 442 2336 752 2640 
Q 1062 2944 1510 2944 
Q 1766 2944 2022 2848 
L 2163 2797 
Q 2349 2733 2515 2733 
L 3008 2733 
L 3008 2483 
z
M 973 2163 
L 973 2144 
Q 973 1683 1155 1398 
Q 1338 1114 1632 1114 
Q 1850 1114 1978 1270 
Q 2106 1427 2106 1690 
Q 2106 2112 1914 2464 
Q 1754 2765 1446 2765 
Q 1222 2765 1097 2605 
Q 973 2445 973 2163 
z
M 2771 -410 
Q 2771 -230 2595 -163 
Q 2419 -96 1978 -96 
Q 1344 -96 941 -13 
Q 749 -243 688 -348 
Q 627 -454 627 -563 
Q 627 -774 880 -902 
Q 1133 -1030 1555 -1030 
Q 2099 -1030 2435 -860 
Q 2771 -691 2771 -410 
z
" transform="scale(0.015625)"/>
      <path id="STIXGeneral-Regular-68" d="M 3117 0 
L 1760 0 
L 1760 96 
Q 2042 128 2118 224 
Q 2195 320 2195 653 
L 2195 1920 
Q 2195 2598 1722 2598 
Q 1530 2598 1370 2508 
Q 1210 2419 1005 2195 
L 1005 653 
Q 1005 320 1081 224 
Q 1158 128 1440 96 
L 1440 0 
L 58 0 
L 58 96 
Q 333 134 400 224 
Q 467 314 467 653 
L 467 3667 
Q 467 3872 406 3933 
Q 346 3994 141 3994 
Q 83 3994 64 3987 
L 64 4090 
L 237 4141 
Q 730 4288 973 4371 
L 1005 4352 
L 1005 2406 
Q 1229 2694 1446 2819 
Q 1664 2944 1946 2944 
Q 2733 2944 2733 1926 
L 2733 653 
Q 2733 320 2793 233 
Q 2854 147 3117 96 
L 3117 0 
z
" transform="scale(0.015625)"/>
      <path id="STIXGeneral-Regular-46" d="M 3494 3322 
L 3334 3322 
Q 3264 3757 3094 3875 
Q 2925 3994 2349 3994 
L 1504 3994 
Q 1370 3994 1328 3946 
Q 1286 3898 1286 3744 
L 1286 2355 
L 2195 2355 
Q 2598 2355 2736 2470 
Q 2874 2586 2918 2963 
L 3066 2963 
L 3066 1472 
L 2918 1472 
Q 2880 1862 2745 1977 
Q 2611 2093 2195 2093 
L 1286 2093 
L 1286 717 
Q 1286 352 1392 246 
Q 1498 141 1869 122 
L 1869 0 
L 70 0 
L 70 122 
Q 435 147 534 259 
Q 634 371 634 787 
L 634 3526 
Q 634 3878 538 3984 
Q 442 4090 77 4115 
L 77 4237 
L 3462 4237 
L 3494 3322 
z
" transform="scale(0.015625)"/>
      <path id="STIXGeneral-Regular-45" d="M 3821 1082 
L 3526 0 
L 77 0 
L 77 122 
Q 442 147 538 252 
Q 634 358 634 730 
L 634 3520 
Q 634 3878 534 3987 
Q 435 4096 77 4115 
L 77 4237 
L 3469 4237 
L 3494 3322 
L 3334 3322 
Q 3264 3750 3085 3872 
Q 2906 3994 2349 3994 
L 1510 3994 
Q 1370 3994 1328 3952 
Q 1286 3910 1286 3763 
L 1286 2355 
L 2253 2355 
Q 2656 2355 2787 2470 
Q 2918 2586 2976 2970 
L 3123 2970 
L 3123 1472 
L 2976 1472 
Q 2918 1875 2790 1984 
Q 2662 2093 2253 2093 
L 1286 2093 
L 1286 538 
Q 1286 346 1420 291 
Q 1555 237 1933 237 
L 2163 237 
Q 2848 237 3136 403 
Q 3424 570 3642 1082 
L 3821 1082 
z
" transform="scale(0.015625)"/>
      <path id="STIXGeneral-Regular-4d" d="M 5530 0 
L 3738 0 
L 3738 122 
Q 4115 147 4214 265 
Q 4314 384 4314 787 
L 4314 3661 
L 2682 0 
L 2592 0 
L 979 3514 
L 979 966 
Q 979 448 1088 294 
Q 1197 141 1574 122 
L 1574 0 
L 77 0 
L 77 122 
Q 358 141 480 205 
Q 602 269 650 432 
Q 698 595 698 966 
L 698 3514 
Q 698 3878 589 3984 
Q 480 4090 90 4115 
L 90 4237 
L 1357 4237 
L 2835 1024 
L 4250 4237 
L 5523 4237 
L 5523 4115 
Q 5178 4109 5072 3993 
Q 4966 3878 4966 3520 
L 4966 717 
Q 4966 378 5072 262 
Q 5178 147 5530 122 
L 5530 0 
z
" transform="scale(0.015625)"/>
      <path id="STIXGeneral-Regular-64" d="M 3142 269 
L 2202 -64 
L 2176 -45 
L 2176 365 
Q 1869 -64 1357 -64 
Q 826 -64 499 317 
Q 173 698 173 1312 
Q 173 1990 563 2467 
Q 954 2944 1504 2944 
Q 1850 2944 2176 2669 
L 2176 3667 
Q 2176 3866 2118 3930 
Q 2061 3994 1882 3994 
Q 1792 3994 1741 3987 
L 1741 4090 
Q 2323 4243 2682 4371 
L 2714 4358 
L 2714 730 
Q 2714 506 2768 435 
Q 2822 365 2995 365 
Q 3034 365 3142 371 
L 3142 269 
z
M 2176 653 
L 2176 2125 
Q 2176 2381 1981 2573 
Q 1786 2765 1523 2765 
Q 1158 2765 940 2438 
Q 723 2112 723 1568 
Q 723 979 963 624 
Q 1203 269 1606 269 
Q 1907 269 2080 474 
Q 2176 582 2176 653 
z
" transform="scale(0.015625)"/>
     </defs>
     <use xlink:href="#STIXGeneral-Regular-44"/>
     <use xlink:href="#STIXGeneral-Regular-69" x="72.199982"/>
     <use xlink:href="#STIXGeneral-Regular-73" x="99.999969"/>
     <use xlink:href="#STIXGeneral-Regular-70" x="138.899963"/>
     <use xlink:href="#STIXGeneral-Regular-6c" x="188.899948"/>
     <use xlink:href="#STIXGeneral-Regular-61" x="216.699936"/>
     <use xlink:href="#STIXGeneral-Regular-63" x="261.09993"/>
     <use xlink:href="#STIXGeneral-Regular-65" x="305.499924"/>
     <use xlink:href="#STIXGeneral-Regular-6d" x="349.899918"/>
     <use xlink:href="#STIXGeneral-Regular-65" x="427.699905"/>
     <use xlink:href="#STIXGeneral-Regular-6e" x="472.099899"/>
     <use xlink:href="#STIXGeneral-Regular-74" x="522.099884"/>
     <use xlink:href="#STIXGeneral-Regular-20" x="549.899872"/>
     <use xlink:href="#STIXGeneral-Regular-73" x="574.899857"/>
     <use xlink:href="#STIXGeneral-Regular-6f" x="613.79985"/>
     <use xlink:href="#STIXGeneral-Regular-6c" x="663.799835"/>
     <use xlink:href="#STIXGeneral-Regular-75" x="691.599823"/>
     <use xlink:href="#STIXGeneral-Regular-74" x="741.599808"/>
     <use xlink:href="#STIXGeneral-Regular-69" x="769.399796"/>
     <use xlink:href="#STIXGeneral-Regular-6f" x="797.199783"/>
     <use xlink:href="#STIXGeneral-Regular-6e" x="847.199768"/>
     <use xlink:href="#STIXGeneral-Regular-20" x="897.199753"/>
     <use xlink:href="#STIXGeneral-Regular-75" x="922.199738"/>
     <use xlink:href="#STIXGeneral-Regular-73" x="972.199722"/>
     <use xlink:href="#STIXGeneral-Regular-69" x="1011.099716"/>
     <use xlink:href="#STIXGeneral-Regular-6e" x="1038.899704"/>
     <use xlink:href="#STIXGeneral-Regular-67" x="1088.899689"/>
     <use xlink:href="#STIXGeneral-Regular-20" x="1138.899673"/>
     <use xlink:href="#STIXGeneral-Regular-74" x="1163.899658"/>
     <use xlink:href="#STIXGeneral-Regular-68" x="1191.699646"/>
     <use xlink:href="#STIXGeneral-Regular-65" x="1241.699631"/>
     <use xlink:href="#STIXGeneral-Regular-20" x="1286.099625"/>
     <use xlink:href="#STIXGeneral-Regular-46" x="1311.099609"/>
     <use xlink:href="#STIXGeneral-Regular-69" x="1366.6996"/>
     <use xlink:href="#STIXGeneral-Regular-6e" x="1394.499588"/>
     <use xlink:href="#STIXGeneral-Regular-69" x="1444.499573"/>
     <use xlink:href="#STIXGeneral-Regular-74" x="1472.299561"/>
     <use xlink:href="#STIXGeneral-Regular-65" x="1500.099548"/>
     <use xlink:href="#STIXGeneral-Regular-20" x="1544.499542"/>
     <use xlink:href="#STIXGeneral-Regular-45" x="1569.499527"/>
     <use xlink:href="#STIXGeneral-Regular-6c" x="1630.599518"/>
     <use xlink:href="#STIXGeneral-Regular-65" x="1658.399506"/>
     <use xlink:href="#STIXGeneral-Regular-6d" x="1702.7995"/>
     <use xlink:href="#STIXGeneral-Regular-65" x="1780.599487"/>
     <use xlink:href="#STIXGeneral-Regular-6e" x="1824.999481"/>
     <use xlink:href="#STIXGeneral-Regular-74" x="1874.999466"/>
     <use xlink:href="#STIXGeneral-Regular-20" x="1902.799454"/>
     <use xlink:href="#STIXGeneral-Regular-4d" x="1927.799438"/>
     <use xlink:href="#STIXGeneral-Regular-65" x="2016.699432"/>
     <use xlink:href="#STIXGeneral-Regular-74" x="2061.099426"/>
     <use xlink:href="#STIXGeneral-Regular-68" x="2088.899414"/>
     <use xlink:href="#STIXGeneral-Regular-6f" x="2138.899399"/>
     <use xlink:href="#STIXGeneral-Regular-64" x="2188.899384"/>
    </g>
   </g>
   <g id="legend_1">
    <g id="patch_7">
     <path d="M 350.92 134.493875 
L 407.72 134.493875 
Q 409.72 134.493875 409.72 132.493875 
L 409.72 48.472 
Q 409.72 46.472 407.72 46.472 
L 350.92 46.472 
Q 348.92 46.472 348.92 48.472 
L 348.92 132.493875 
Q 348.92 134.493875 350.92 134.493875 
z
" style="fill: #ffffff; opacity: 0.8; stroke: #cccccc; stroke-linejoin: miter"/>
    </g>
    <g id="line2d_129">
     <path d="M 352.92 53.972 
L 362.92 53.972 
L 372.92 53.972 
" style="fill: none; stroke: #00ffff; stroke-linecap: square"/>
    </g>
    <g id="text_18">
     <!-- $n = 5$ -->
     <g transform="translate(380.92 57.472) scale(0.1 -0.1)">
      <defs>
       <path id="STIXGeneral-Italic-6e" d="M 2944 749 
L 3034 666 
Q 2707 218 2534 80 
Q 2362 -58 2138 -58 
Q 2010 -58 1923 28 
Q 1837 115 1837 288 
Q 1837 390 1939 768 
L 2221 1805 
Q 2310 2150 2310 2310 
Q 2310 2496 2157 2496 
Q 1971 2496 1750 2275 
Q 1530 2054 1210 1587 
Q 998 1274 899 1024 
Q 800 774 570 0 
L 90 0 
L 704 2240 
Q 717 2304 717 2349 
Q 717 2445 630 2480 
Q 544 2515 301 2522 
L 301 2624 
Q 550 2675 857 2729 
Q 1165 2784 1338 2822 
L 1363 2810 
L 934 1414 
Q 1408 2170 1753 2496 
Q 2099 2822 2413 2822 
Q 2611 2822 2720 2716 
Q 2829 2611 2829 2432 
Q 2829 2272 2765 2048 
L 2406 749 
Q 2317 429 2317 358 
Q 2317 243 2419 243 
Q 2541 243 2810 582 
Q 2854 634 2944 749 
z
" transform="scale(0.015625)"/>
       <path id="STIXGeneral-Regular-3d" d="M 4077 2048 
L 307 2048 
L 307 2470 
L 4077 2470 
L 4077 2048 
z
M 4077 768 
L 307 768 
L 307 1190 
L 4077 1190 
L 4077 768 
z
" transform="scale(0.015625)"/>
      </defs>
      <use xlink:href="#STIXGeneral-Italic-6e" transform="translate(0 0.203125)"/>
      <use xlink:href="#STIXGeneral-Regular-3d" transform="translate(64.439981 0.203125)"/>
      <use xlink:href="#STIXGeneral-Regular-35" transform="translate(147.379962 0.203125)"/>
     </g>
    </g>
    <g id="line2d_130">
     <path d="M 352.92 68.142313 
L 362.92 68.142313 
L 372.92 68.142313 
" style="fill: none; stroke: #40bfff; stroke-linecap: square"/>
    </g>
    <g id="text_19">
     <!-- $n = 10$ -->
     <g transform="translate(380.92 71.642313) scale(0.1 -0.1)">
      <use xlink:href="#STIXGeneral-Italic-6e" transform="translate(0 0.40625)"/>
      <use xlink:href="#STIXGeneral-Regular-3d" transform="translate(64.439981 0.40625)"/>
      <use xlink:href="#STIXGeneral-Regular-31" transform="translate(147.379962 0.40625)"/>
      <use xlink:href="#STIXGeneral-Regular-30" transform="translate(197.379947 0.40625)"/>
     </g>
    </g>
    <g id="line2d_131">
     <path d="M 352.92 82.312625 
L 362.92 82.312625 
L 372.92 82.312625 
" style="fill: none; stroke: #807fff; stroke-linecap: square"/>
    </g>
    <g id="text_20">
     <!-- $n = 20$ -->
     <g transform="translate(380.92 85.812625) scale(0.1 -0.1)">
      <use xlink:href="#STIXGeneral-Italic-6e" transform="translate(0 0.40625)"/>
      <use xlink:href="#STIXGeneral-Regular-3d" transform="translate(64.439981 0.40625)"/>
      <use xlink:href="#STIXGeneral-Regular-32" transform="translate(147.379962 0.40625)"/>
      <use xlink:href="#STIXGeneral-Regular-30" transform="translate(197.379947 0.40625)"/>
     </g>
    </g>
    <g id="line2d_132">
     <path d="M 352.92 96.482938 
L 362.92 96.482938 
L 372.92 96.482938 
" style="fill: none; stroke: #c03fff; stroke-linecap: square"/>
    </g>
    <g id="text_21">
     <!-- $n = 40$ -->
     <g transform="translate(380.92 99.982938) scale(0.1 -0.1)">
      <use xlink:href="#STIXGeneral-Italic-6e" transform="translate(0 0.40625)"/>
      <use xlink:href="#STIXGeneral-Regular-3d" transform="translate(64.439981 0.40625)"/>
      <use xlink:href="#STIXGeneral-Regular-34" transform="translate(147.379962 0.40625)"/>
      <use xlink:href="#STIXGeneral-Regular-30" transform="translate(197.379947 0.40625)"/>
     </g>
    </g>
    <g id="line2d_133">
     <path d="M 352.92 110.65325 
L 362.92 110.65325 
L 372.92 110.65325 
" style="fill: none; stroke: #ff00ff; stroke-linecap: square"/>
    </g>
    <g id="text_22">
     <!-- $n = 80$ -->
     <g transform="translate(380.92 114.15325) scale(0.1 -0.1)">
      <use xlink:href="#STIXGeneral-Italic-6e" transform="translate(0 0.40625)"/>
      <use xlink:href="#STIXGeneral-Regular-3d" transform="translate(64.439981 0.40625)"/>
      <use xlink:href="#STIXGeneral-Regular-38" transform="translate(147.379962 0.40625)"/>
      <use xlink:href="#STIXGeneral-Regular-30" transform="translate(197.379947 0.40625)"/>
     </g>
    </g>
    <g id="line2d_134">
     <path d="M 352.92 124.823563 
L 362.92 124.823563 
L 372.92 124.823563 
" style="fill: none; stroke: #ff0000; stroke-linecap: square"/>
    </g>
    <g id="text_23">
     <!-- $u(x)$ -->
     <g transform="translate(380.92 128.323563) scale(0.1 -0.1)">
      <use xlink:href="#STIXGeneral-Italic-75" transform="translate(0 0.40625)"/>
      <use xlink:href="#STIXGeneral-Regular-28" transform="translate(49.999985 0.40625)"/>
      <use xlink:href="#STIXGeneral-Italic-78" transform="translate(83.299973 0.40625)"/>
      <use xlink:href="#STIXGeneral-Regular-29" transform="translate(127.699966 0.40625)"/>
     </g>
    </g>
   </g>
  </g>
 </g>
 <defs>
  <clipPath id="pb9235d4977">
   <rect x="57.6" y="41.472" width="357.12" height="266.112"/>
  </clipPath>
 </defs>
</svg>
