<?xml version="1.0" encoding="utf-8" standalone="no"?>
<!DOCTYPE svg PUBLIC "-//W3C//DTD SVG 1.1//EN"
  "http://www.w3.org/Graphics/SVG/1.1/DTD/svg11.dtd">
<svg xmlns:xlink="http://www.w3.org/1999/xlink" width="460.8pt" height="345.6pt" viewBox="0 0 460.8 345.6" xmlns="http://www.w3.org/2000/svg" version="1.1">
 <metadata>
  <rdf:RDF xmlns:dc="http://purl.org/dc/elements/1.1/" xmlns:cc="http://creativecommons.org/ns#" xmlns:rdf="http://www.w3.org/1999/02/22-rdf-syntax-ns#">
   <cc:Work>
    <dc:type rdf:resource="http://purl.org/dc/dcmitype/StillImage"/>
    <dc:date>2024-10-06T14:59:13.767733</dc:date>
    <dc:format>image/svg+xml</dc:format>
    <dc:creator>
     <cc:Agent>
      <dc:title>Matplotlib v3.7.2, https://matplotlib.org/</dc:title>
     </cc:Agent>
    </dc:creator>
   </cc:Work>
  </rdf:RDF>
 </metadata>
 <defs>
  <style type="text/css">*{stroke-linejoin: round; stroke-linecap: butt}</style>
 </defs>
 <g id="figure_1">
  <g id="patch_1">
   <path d="M 0 345.6 
L 460.8 345.6 
L 460.8 0 
L 0 0 
z
" style="fill: #ffffff"/>
  </g>
  <g id="axes_1">
   <g id="patch_2">
    <path d="M 57.6 307.584 
L 414.72 307.584 
L 414.72 41.472 
L 57.6 41.472 
z
" style="fill: #ffffff"/>
   </g>
   <g id="matplotlib.axis_1">
    <g id="xtick_1">
     <g id="line2d_1">
      <path d="M 73.832727 307.584 
L 73.832727 41.472 
" clip-path="url(#pd626eebe5c)" style="fill: none; stroke: #d3d3d3; stroke-width: 0.8; stroke-linecap: square"/>
     </g>
     <g id="line2d_2">
      <defs>
       <path id="m1c761053ea" d="M 0 0 
L 0 3.5 
" style="stroke: #000000; stroke-width: 0.8"/>
      </defs>
      <g>
       <use xlink:href="#m1c761053ea" x="73.832727" y="307.584" style="stroke: #000000; stroke-width: 0.8"/>
      </g>
     </g>
     <g id="text_1">
      <!-- 0.0 -->
      <g transform="translate(67.582727 321.413687) scale(0.1 -0.1)">
       <defs>
        <path id="STIXGeneral-Regular-30" d="M 3046 2112 
Q 3046 1683 2963 1302 
Q 2880 922 2717 602 
Q 2554 282 2266 96 
Q 1978 -90 1600 -90 
Q 1210 -90 915 108 
Q 621 307 461 640 
Q 301 973 227 1350 
Q 154 1728 154 2150 
Q 154 2746 301 3222 
Q 448 3699 790 4012 
Q 1133 4326 1626 4326 
Q 2253 4326 2649 3712 
Q 3046 3098 3046 2112 
z
M 2432 2080 
Q 2432 3091 2217 3625 
Q 2003 4160 1587 4160 
Q 1190 4160 979 3622 
Q 768 3085 768 2106 
Q 768 1120 979 598 
Q 1190 77 1600 77 
Q 2003 77 2217 598 
Q 2432 1120 2432 2080 
z
" transform="scale(0.015625)"/>
        <path id="STIXGeneral-Regular-2e" d="M 1158 275 
Q 1158 134 1052 32 
Q 947 -70 800 -70 
Q 653 -70 550 32 
Q 448 134 448 281 
Q 448 429 553 534 
Q 659 640 806 640 
Q 947 640 1052 531 
Q 1158 422 1158 275 
z
" transform="scale(0.015625)"/>
       </defs>
       <use xlink:href="#STIXGeneral-Regular-30"/>
       <use xlink:href="#STIXGeneral-Regular-2e" x="49.999985"/>
       <use xlink:href="#STIXGeneral-Regular-30" x="74.999969"/>
      </g>
     </g>
    </g>
    <g id="xtick_2">
     <g id="line2d_3">
      <path d="M 138.763636 307.584 
L 138.763636 41.472 
" clip-path="url(#pd626eebe5c)" style="fill: none; stroke: #d3d3d3; stroke-width: 0.8; stroke-linecap: square"/>
     </g>
     <g id="line2d_4">
      <g>
       <use xlink:href="#m1c761053ea" x="138.763636" y="307.584" style="stroke: #000000; stroke-width: 0.8"/>
      </g>
     </g>
     <g id="text_2">
      <!-- 0.2 -->
      <g transform="translate(132.513636 321.413687) scale(0.1 -0.1)">
       <defs>
        <path id="STIXGeneral-Regular-32" d="M 3034 877 
L 2688 0 
L 186 0 
L 186 77 
L 1325 1286 
Q 1773 1754 1965 2144 
Q 2157 2534 2157 2950 
Q 2157 3379 1920 3616 
Q 1683 3853 1267 3853 
Q 922 3853 720 3673 
Q 518 3494 326 3021 
L 192 3053 
Q 301 3648 630 3987 
Q 960 4326 1523 4326 
Q 2054 4326 2380 4006 
Q 2707 3686 2707 3200 
Q 2707 2477 1888 1613 
L 832 486 
L 2330 486 
Q 2541 486 2665 569 
Q 2790 653 2944 915 
L 3034 877 
z
" transform="scale(0.015625)"/>
       </defs>
       <use xlink:href="#STIXGeneral-Regular-30"/>
       <use xlink:href="#STIXGeneral-Regular-2e" x="49.999985"/>
       <use xlink:href="#STIXGeneral-Regular-32" x="74.999969"/>
      </g>
     </g>
    </g>
    <g id="xtick_3">
     <g id="line2d_5">
      <path d="M 203.694545 307.584 
L 203.694545 41.472 
" clip-path="url(#pd626eebe5c)" style="fill: none; stroke: #d3d3d3; stroke-width: 0.8; stroke-linecap: square"/>
     </g>
     <g id="line2d_6">
      <g>
       <use xlink:href="#m1c761053ea" x="203.694545" y="307.584" style="stroke: #000000; stroke-width: 0.8"/>
      </g>
     </g>
     <g id="text_3">
      <!-- 0.4 -->
      <g transform="translate(197.444545 321.413687) scale(0.1 -0.1)">
       <defs>
        <path id="STIXGeneral-Regular-34" d="M 3027 1069 
L 2368 1069 
L 2368 0 
L 1869 0 
L 1869 1069 
L 77 1069 
L 77 1478 
L 2086 4326 
L 2368 4326 
L 2368 1478 
L 3027 1478 
L 3027 1069 
z
M 1869 1478 
L 1869 3674 
L 333 1478 
L 1869 1478 
z
" transform="scale(0.015625)"/>
       </defs>
       <use xlink:href="#STIXGeneral-Regular-30"/>
       <use xlink:href="#STIXGeneral-Regular-2e" x="49.999985"/>
       <use xlink:href="#STIXGeneral-Regular-34" x="74.999969"/>
      </g>
     </g>
    </g>
    <g id="xtick_4">
     <g id="line2d_7">
      <path d="M 268.625455 307.584 
L 268.625455 41.472 
" clip-path="url(#pd626eebe5c)" style="fill: none; stroke: #d3d3d3; stroke-width: 0.8; stroke-linecap: square"/>
     </g>
     <g id="line2d_8">
      <g>
       <use xlink:href="#m1c761053ea" x="268.625455" y="307.584" style="stroke: #000000; stroke-width: 0.8"/>
      </g>
     </g>
     <g id="text_4">
      <!-- 0.6 -->
      <g transform="translate(262.375455 321.413687) scale(0.1 -0.1)">
       <defs>
        <path id="STIXGeneral-Regular-36" d="M 2854 4378 
L 2867 4275 
Q 2112 4154 1606 3664 
Q 1101 3174 973 2451 
Q 1344 2739 1786 2739 
Q 2349 2739 2672 2380 
Q 2995 2022 2995 1402 
Q 2995 774 2669 378 
Q 2291 -90 1651 -90 
Q 870 -90 518 557 
Q 218 1107 218 1786 
Q 218 2835 915 3552 
Q 1312 3962 1731 4131 
Q 2150 4301 2854 4378 
z
M 2419 1203 
Q 2419 2445 1555 2445 
Q 1235 2445 1024 2275 
Q 813 2106 813 1702 
Q 813 954 1046 522 
Q 1280 90 1722 90 
Q 2061 90 2240 394 
Q 2419 698 2419 1203 
z
" transform="scale(0.015625)"/>
       </defs>
       <use xlink:href="#STIXGeneral-Regular-30"/>
       <use xlink:href="#STIXGeneral-Regular-2e" x="49.999985"/>
       <use xlink:href="#STIXGeneral-Regular-36" x="74.999969"/>
      </g>
     </g>
    </g>
    <g id="xtick_5">
     <g id="line2d_9">
      <path d="M 333.556364 307.584 
L 333.556364 41.472 
" clip-path="url(#pd626eebe5c)" style="fill: none; stroke: #d3d3d3; stroke-width: 0.8; stroke-linecap: square"/>
     </g>
     <g id="line2d_10">
      <g>
       <use xlink:href="#m1c761053ea" x="333.556364" y="307.584" style="stroke: #000000; stroke-width: 0.8"/>
      </g>
     </g>
     <g id="text_5">
      <!-- 0.8 -->
      <g transform="translate(327.306364 321.413687) scale(0.1 -0.1)">
       <defs>
        <path id="STIXGeneral-Regular-38" d="M 2848 992 
Q 2848 499 2505 204 
Q 2163 -90 1587 -90 
Q 1050 -90 704 204 
Q 358 499 358 954 
Q 358 1293 524 1533 
Q 691 1773 1190 2125 
Q 710 2522 553 2765 
Q 397 3008 397 3328 
Q 397 3782 745 4054 
Q 1094 4326 1638 4326 
Q 2106 4326 2410 4060 
Q 2714 3795 2714 3411 
Q 2714 3059 2531 2848 
Q 2349 2637 1856 2374 
Q 2432 1990 2640 1689 
Q 2848 1389 2848 992 
z
M 2272 3411 
Q 2272 3744 2086 3945 
Q 1901 4147 1574 4147 
Q 1248 4147 1059 3977 
Q 870 3808 870 3513 
Q 870 3219 1059 2979 
Q 1248 2739 1670 2490 
Q 1997 2682 2134 2896 
Q 2272 3110 2272 3411 
z
M 1734 1741 
L 1357 1997 
Q 1075 1766 960 1545 
Q 845 1325 845 1011 
Q 845 576 1065 333 
Q 1286 90 1658 90 
Q 1971 90 2166 285 
Q 2362 480 2362 794 
Q 2362 1082 2214 1299 
Q 2067 1517 1734 1741 
z
" transform="scale(0.015625)"/>
       </defs>
       <use xlink:href="#STIXGeneral-Regular-30"/>
       <use xlink:href="#STIXGeneral-Regular-2e" x="49.999985"/>
       <use xlink:href="#STIXGeneral-Regular-38" x="74.999969"/>
      </g>
     </g>
    </g>
    <g id="xtick_6">
     <g id="line2d_11">
      <path d="M 398.487273 307.584 
L 398.487273 41.472 
" clip-path="url(#pd626eebe5c)" style="fill: none; stroke: #d3d3d3; stroke-width: 0.8; stroke-linecap: square"/>
     </g>
     <g id="line2d_12">
      <g>
       <use xlink:href="#m1c761053ea" x="398.487273" y="307.584" style="stroke: #000000; stroke-width: 0.8"/>
      </g>
     </g>
     <g id="text_6">
      <!-- 1.0 -->
      <g transform="translate(392.237273 321.413687) scale(0.1 -0.1)">
       <defs>
        <path id="STIXGeneral-Regular-31" d="M 2522 0 
L 755 0 
L 755 96 
Q 1107 115 1235 227 
Q 1363 339 1363 608 
L 1363 3482 
Q 1363 3795 1171 3795 
Q 1082 3795 883 3718 
L 710 3654 
L 710 3744 
L 1856 4326 
L 1914 4307 
L 1914 486 
Q 1914 275 2042 185 
Q 2170 96 2522 96 
L 2522 0 
z
" transform="scale(0.015625)"/>
       </defs>
       <use xlink:href="#STIXGeneral-Regular-31"/>
       <use xlink:href="#STIXGeneral-Regular-2e" x="49.999985"/>
       <use xlink:href="#STIXGeneral-Regular-30" x="74.999969"/>
      </g>
     </g>
    </g>
    <g id="xtick_7">
     <g id="line2d_13">
      <path d="M 90.065455 307.584 
L 90.065455 41.472 
" clip-path="url(#pd626eebe5c)" style="fill: none; stroke-dasharray: 0.8,1.32; stroke-dashoffset: 0; stroke: #d3d3d3; stroke-width: 0.8"/>
     </g>
     <g id="line2d_14">
      <defs>
       <path id="m7973dd2538" d="M 0 0 
L 0 2 
" style="stroke: #000000; stroke-width: 0.6"/>
      </defs>
      <g>
       <use xlink:href="#m7973dd2538" x="90.065455" y="307.584" style="stroke: #000000; stroke-width: 0.6"/>
      </g>
     </g>
    </g>
    <g id="xtick_8">
     <g id="line2d_15">
      <path d="M 106.298182 307.584 
L 106.298182 41.472 
" clip-path="url(#pd626eebe5c)" style="fill: none; stroke-dasharray: 0.8,1.32; stroke-dashoffset: 0; stroke: #d3d3d3; stroke-width: 0.8"/>
     </g>
     <g id="line2d_16">
      <g>
       <use xlink:href="#m7973dd2538" x="106.298182" y="307.584" style="stroke: #000000; stroke-width: 0.6"/>
      </g>
     </g>
    </g>
    <g id="xtick_9">
     <g id="line2d_17">
      <path d="M 122.530909 307.584 
L 122.530909 41.472 
" clip-path="url(#pd626eebe5c)" style="fill: none; stroke-dasharray: 0.8,1.32; stroke-dashoffset: 0; stroke: #d3d3d3; stroke-width: 0.8"/>
     </g>
     <g id="line2d_18">
      <g>
       <use xlink:href="#m7973dd2538" x="122.530909" y="307.584" style="stroke: #000000; stroke-width: 0.6"/>
      </g>
     </g>
    </g>
    <g id="xtick_10">
     <g id="line2d_19">
      <path d="M 154.996364 307.584 
L 154.996364 41.472 
" clip-path="url(#pd626eebe5c)" style="fill: none; stroke-dasharray: 0.8,1.32; stroke-dashoffset: 0; stroke: #d3d3d3; stroke-width: 0.8"/>
     </g>
     <g id="line2d_20">
      <g>
       <use xlink:href="#m7973dd2538" x="154.996364" y="307.584" style="stroke: #000000; stroke-width: 0.6"/>
      </g>
     </g>
    </g>
    <g id="xtick_11">
     <g id="line2d_21">
      <path d="M 171.229091 307.584 
L 171.229091 41.472 
" clip-path="url(#pd626eebe5c)" style="fill: none; stroke-dasharray: 0.8,1.32; stroke-dashoffset: 0; stroke: #d3d3d3; stroke-width: 0.8"/>
     </g>
     <g id="line2d_22">
      <g>
       <use xlink:href="#m7973dd2538" x="171.229091" y="307.584" style="stroke: #000000; stroke-width: 0.6"/>
      </g>
     </g>
    </g>
    <g id="xtick_12">
     <g id="line2d_23">
      <path d="M 187.461818 307.584 
L 187.461818 41.472 
" clip-path="url(#pd626eebe5c)" style="fill: none; stroke-dasharray: 0.8,1.32; stroke-dashoffset: 0; stroke: #d3d3d3; stroke-width: 0.8"/>
     </g>
     <g id="line2d_24">
      <g>
       <use xlink:href="#m7973dd2538" x="187.461818" y="307.584" style="stroke: #000000; stroke-width: 0.6"/>
      </g>
     </g>
    </g>
    <g id="xtick_13">
     <g id="line2d_25">
      <path d="M 219.927273 307.584 
L 219.927273 41.472 
" clip-path="url(#pd626eebe5c)" style="fill: none; stroke-dasharray: 0.8,1.32; stroke-dashoffset: 0; stroke: #d3d3d3; stroke-width: 0.8"/>
     </g>
     <g id="line2d_26">
      <g>
       <use xlink:href="#m7973dd2538" x="219.927273" y="307.584" style="stroke: #000000; stroke-width: 0.6"/>
      </g>
     </g>
    </g>
    <g id="xtick_14">
     <g id="line2d_27">
      <path d="M 236.16 307.584 
L 236.16 41.472 
" clip-path="url(#pd626eebe5c)" style="fill: none; stroke-dasharray: 0.8,1.32; stroke-dashoffset: 0; stroke: #d3d3d3; stroke-width: 0.8"/>
     </g>
     <g id="line2d_28">
      <g>
       <use xlink:href="#m7973dd2538" x="236.16" y="307.584" style="stroke: #000000; stroke-width: 0.6"/>
      </g>
     </g>
    </g>
    <g id="xtick_15">
     <g id="line2d_29">
      <path d="M 252.392727 307.584 
L 252.392727 41.472 
" clip-path="url(#pd626eebe5c)" style="fill: none; stroke-dasharray: 0.8,1.32; stroke-dashoffset: 0; stroke: #d3d3d3; stroke-width: 0.8"/>
     </g>
     <g id="line2d_30">
      <g>
       <use xlink:href="#m7973dd2538" x="252.392727" y="307.584" style="stroke: #000000; stroke-width: 0.6"/>
      </g>
     </g>
    </g>
    <g id="xtick_16">
     <g id="line2d_31">
      <path d="M 284.858182 307.584 
L 284.858182 41.472 
" clip-path="url(#pd626eebe5c)" style="fill: none; stroke-dasharray: 0.8,1.32; stroke-dashoffset: 0; stroke: #d3d3d3; stroke-width: 0.8"/>
     </g>
     <g id="line2d_32">
      <g>
       <use xlink:href="#m7973dd2538" x="284.858182" y="307.584" style="stroke: #000000; stroke-width: 0.6"/>
      </g>
     </g>
    </g>
    <g id="xtick_17">
     <g id="line2d_33">
      <path d="M 301.090909 307.584 
L 301.090909 41.472 
" clip-path="url(#pd626eebe5c)" style="fill: none; stroke-dasharray: 0.8,1.32; stroke-dashoffset: 0; stroke: #d3d3d3; stroke-width: 0.8"/>
     </g>
     <g id="line2d_34">
      <g>
       <use xlink:href="#m7973dd2538" x="301.090909" y="307.584" style="stroke: #000000; stroke-width: 0.6"/>
      </g>
     </g>
    </g>
    <g id="xtick_18">
     <g id="line2d_35">
      <path d="M 317.323636 307.584 
L 317.323636 41.472 
" clip-path="url(#pd626eebe5c)" style="fill: none; stroke-dasharray: 0.8,1.32; stroke-dashoffset: 0; stroke: #d3d3d3; stroke-width: 0.8"/>
     </g>
     <g id="line2d_36">
      <g>
       <use xlink:href="#m7973dd2538" x="317.323636" y="307.584" style="stroke: #000000; stroke-width: 0.6"/>
      </g>
     </g>
    </g>
    <g id="xtick_19">
     <g id="line2d_37">
      <path d="M 349.789091 307.584 
L 349.789091 41.472 
" clip-path="url(#pd626eebe5c)" style="fill: none; stroke-dasharray: 0.8,1.32; stroke-dashoffset: 0; stroke: #d3d3d3; stroke-width: 0.8"/>
     </g>
     <g id="line2d_38">
      <g>
       <use xlink:href="#m7973dd2538" x="349.789091" y="307.584" style="stroke: #000000; stroke-width: 0.6"/>
      </g>
     </g>
    </g>
    <g id="xtick_20">
     <g id="line2d_39">
      <path d="M 366.021818 307.584 
L 366.021818 41.472 
" clip-path="url(#pd626eebe5c)" style="fill: none; stroke-dasharray: 0.8,1.32; stroke-dashoffset: 0; stroke: #d3d3d3; stroke-width: 0.8"/>
     </g>
     <g id="line2d_40">
      <g>
       <use xlink:href="#m7973dd2538" x="366.021818" y="307.584" style="stroke: #000000; stroke-width: 0.6"/>
      </g>
     </g>
    </g>
    <g id="xtick_21">
     <g id="line2d_41">
      <path d="M 382.254545 307.584 
L 382.254545 41.472 
" clip-path="url(#pd626eebe5c)" style="fill: none; stroke-dasharray: 0.8,1.32; stroke-dashoffset: 0; stroke: #d3d3d3; stroke-width: 0.8"/>
     </g>
     <g id="line2d_42">
      <g>
       <use xlink:href="#m7973dd2538" x="382.254545" y="307.584" style="stroke: #000000; stroke-width: 0.6"/>
      </g>
     </g>
    </g>
    <g id="text_7">
     <!-- Position ($x$) [m] -->
     <g transform="translate(204.46 334.413687) scale(0.1 -0.1)">
      <defs>
       <path id="STIXGeneral-Regular-50" d="M 102 4237 
L 1760 4237 
Q 2669 4237 3149 3834 
Q 3469 3565 3469 3072 
Q 3469 2560 3104 2234 
Q 2835 1990 2553 1916 
Q 2272 1843 1734 1843 
Q 1549 1843 1293 1862 
L 1293 717 
Q 1293 352 1398 246 
Q 1504 141 1894 122 
L 1894 0 
L 102 0 
L 102 122 
Q 474 147 557 256 
Q 640 365 640 781 
L 640 3526 
Q 640 3885 547 3987 
Q 454 4090 102 4115 
L 102 4237 
z
M 1293 3770 
L 1293 2118 
Q 1510 2099 1683 2099 
Q 2202 2099 2486 2352 
Q 2771 2605 2771 3040 
Q 2771 3558 2476 3779 
Q 2182 4000 1517 4000 
Q 1382 4000 1337 3952 
Q 1293 3904 1293 3770 
z
" transform="scale(0.015625)"/>
       <path id="STIXGeneral-Regular-6f" d="M 3008 1478 
Q 3008 806 2608 371 
Q 2208 -64 1568 -64 
Q 979 -64 582 368 
Q 186 800 186 1459 
Q 186 2125 582 2534 
Q 979 2944 1626 2944 
Q 2221 2944 2614 2537 
Q 3008 2131 3008 1478 
z
M 2432 1306 
Q 2432 2035 2112 2445 
Q 1856 2765 1504 2765 
Q 1171 2765 966 2493 
Q 762 2221 762 1747 
Q 762 928 1101 435 
Q 1318 115 1677 115 
Q 2029 115 2230 432 
Q 2432 749 2432 1306 
z
" transform="scale(0.015625)"/>
       <path id="STIXGeneral-Regular-73" d="M 998 1926 
L 1664 1523 
Q 1984 1331 2105 1164 
Q 2227 998 2227 736 
Q 2227 416 1961 176 
Q 1696 -64 1331 -64 
Q 1030 -64 864 -6 
Q 691 51 570 51 
Q 461 51 416 -26 
L 333 -26 
L 333 979 
L 435 979 
Q 538 512 730 294 
Q 922 77 1248 77 
Q 1485 77 1632 211 
Q 1779 346 1779 550 
Q 1779 845 1440 1030 
L 1094 1222 
Q 326 1651 326 2150 
Q 326 2522 566 2730 
Q 806 2938 1210 2938 
Q 1491 2938 1638 2867 
Q 1754 2816 1818 2816 
Q 1862 2816 1920 2880 
L 1990 2880 
L 2022 2010 
L 1926 2010 
Q 1818 2445 1654 2621 
Q 1491 2797 1203 2797 
Q 986 2797 854 2688 
Q 723 2579 723 2362 
Q 723 2253 796 2128 
Q 870 2003 998 1926 
z
" transform="scale(0.015625)"/>
       <path id="STIXGeneral-Regular-69" d="M 1152 4045 
Q 1152 3904 1056 3811 
Q 960 3718 819 3718 
Q 685 3718 592 3811 
Q 499 3904 499 4045 
Q 499 4179 595 4275 
Q 691 4371 826 4371 
Q 966 4371 1059 4275 
Q 1152 4179 1152 4045 
z
M 1619 0 
L 102 0 
L 102 96 
Q 435 115 521 211 
Q 608 307 608 666 
L 608 2118 
Q 608 2342 563 2432 
Q 518 2522 397 2522 
Q 243 2522 128 2490 
L 128 2592 
L 1120 2944 
L 1146 2918 
L 1146 672 
Q 1146 314 1226 218 
Q 1306 122 1619 96 
L 1619 0 
z
" transform="scale(0.015625)"/>
       <path id="STIXGeneral-Regular-74" d="M 1702 493 
L 1786 422 
Q 1478 -64 1011 -64 
Q 448 -64 448 749 
L 448 2675 
L 109 2675 
Q 83 2694 83 2720 
Q 83 2771 192 2842 
Q 435 2982 813 3526 
Q 826 3546 874 3606 
Q 922 3667 941 3706 
Q 986 3706 986 3622 
L 986 2880 
L 1632 2880 
L 1632 2675 
L 986 2675 
L 986 845 
Q 986 538 1062 403 
Q 1139 269 1318 269 
Q 1510 269 1702 493 
z
" transform="scale(0.015625)"/>
       <path id="STIXGeneral-Regular-6e" d="M 3104 0 
L 1773 0 
L 1779 96 
Q 2016 115 2096 233 
Q 2176 352 2176 672 
L 2176 1946 
Q 2176 2592 1709 2592 
Q 1549 2592 1408 2515 
Q 1267 2438 1050 2227 
L 1050 461 
Q 1050 269 1136 192 
Q 1222 115 1466 96 
L 1466 0 
L 115 0 
L 115 96 
Q 358 115 435 214 
Q 512 314 512 602 
L 512 2157 
Q 512 2394 467 2483 
Q 422 2573 288 2573 
Q 160 2573 102 2547 
L 102 2656 
Q 550 2784 979 2944 
L 1030 2925 
L 1030 2426 
L 1037 2426 
Q 1491 2944 1958 2944 
Q 2323 2944 2518 2688 
Q 2714 2432 2714 1958 
L 2714 544 
Q 2714 288 2790 205 
Q 2867 122 3104 96 
L 3104 0 
z
" transform="scale(0.015625)"/>
       <path id="STIXGeneral-Regular-20" transform="scale(0.015625)"/>
       <path id="STIXGeneral-Regular-28" d="M 1946 -1030 
L 1869 -1133 
Q 1126 -710 716 32 
Q 307 774 307 1613 
Q 307 3386 1888 4326 
L 1946 4224 
Q 1293 3667 1075 3126 
Q 858 2586 858 1632 
Q 858 685 1082 96 
Q 1306 -493 1946 -1030 
z
" transform="scale(0.015625)"/>
       <path id="STIXGeneral-Italic-78" d="M 1555 2272 
L 1632 1907 
Q 1971 2426 2179 2624 
Q 2387 2822 2598 2822 
Q 2714 2822 2787 2755 
Q 2861 2688 2861 2585 
Q 2861 2483 2800 2419 
Q 2739 2355 2643 2355 
Q 2586 2355 2490 2409 
Q 2394 2464 2310 2464 
Q 2125 2464 1683 1690 
Q 1683 1606 1734 1402 
L 1939 544 
Q 2003 282 2131 282 
Q 2234 282 2432 538 
Q 2451 563 2476 598 
Q 2502 634 2521 662 
Q 2541 691 2566 717 
L 2662 659 
Q 2387 230 2227 80 
Q 2067 -70 1882 -70 
Q 1728 -70 1645 26 
Q 1562 122 1504 365 
L 1318 1126 
L 755 365 
Q 557 96 432 13 
Q 307 -70 147 -70 
Q 0 -70 -86 0 
Q -173 70 -173 198 
Q -173 294 -112 361 
Q -51 429 45 429 
Q 122 429 250 358 
Q 346 301 416 301 
Q 525 301 742 614 
L 1267 1357 
L 1088 2150 
Q 1024 2432 969 2509 
Q 915 2586 794 2586 
Q 717 2586 544 2541 
L 429 2509 
L 410 2611 
L 480 2637 
Q 992 2822 1229 2822 
Q 1350 2822 1420 2707 
Q 1491 2592 1555 2272 
z
" transform="scale(0.015625)"/>
       <path id="STIXGeneral-Regular-29" d="M 186 4224 
L 262 4326 
Q 992 3891 1408 3148 
Q 1824 2406 1824 1581 
Q 1824 -166 243 -1133 
L 186 -1030 
Q 845 -486 1059 54 
Q 1274 595 1274 1562 
Q 1274 2534 1059 3120 
Q 845 3706 186 4224 
z
" transform="scale(0.015625)"/>
       <path id="STIXGeneral-Regular-5b" d="M 1914 -998 
L 563 -998 
L 563 4237 
L 1914 4237 
L 1914 4077 
L 1382 4077 
Q 1216 4077 1133 4006 
Q 1050 3936 1050 3770 
L 1050 -493 
Q 1050 -838 1382 -838 
L 1914 -838 
L 1914 -998 
z
" transform="scale(0.015625)"/>
       <path id="STIXGeneral-Regular-6d" d="M 4960 0 
L 3565 0 
L 3565 96 
Q 3834 122 3907 208 
Q 3981 294 3981 576 
L 3981 1894 
Q 3981 2278 3869 2444 
Q 3757 2611 3488 2611 
Q 3264 2611 3107 2521 
Q 2950 2432 2803 2221 
L 2803 608 
Q 2803 301 2896 201 
Q 2989 102 3264 96 
L 3264 0 
L 1830 0 
L 1830 96 
Q 2112 115 2189 188 
Q 2266 262 2266 550 
L 2266 1901 
Q 2266 2611 1850 2611 
Q 1670 2611 1468 2531 
Q 1267 2451 1171 2336 
Q 1088 2240 1088 2227 
L 1088 448 
Q 1088 243 1177 176 
Q 1267 109 1523 96 
L 1523 0 
L 102 0 
L 102 96 
Q 371 102 460 195 
Q 550 288 550 563 
L 550 2150 
Q 550 2387 499 2480 
Q 448 2573 326 2573 
Q 230 2573 122 2547 
L 122 2656 
Q 557 2778 1011 2944 
L 1062 2925 
L 1062 2451 
L 1075 2451 
Q 1363 2752 1584 2848 
Q 1805 2944 2054 2944 
Q 2560 2944 2733 2406 
Q 3232 2944 3776 2944 
Q 4518 2944 4518 1792 
L 4518 493 
Q 4518 282 4582 202 
Q 4646 122 4794 109 
L 4960 96 
L 4960 0 
z
" transform="scale(0.015625)"/>
       <path id="STIXGeneral-Regular-5d" d="M 1568 -998 
L 218 -998 
L 218 -838 
L 781 -838 
Q 947 -838 1014 -768 
Q 1082 -698 1082 -544 
L 1082 3731 
Q 1082 4077 755 4077 
L 218 4077 
L 218 4237 
L 1568 4237 
L 1568 -998 
z
" transform="scale(0.015625)"/>
      </defs>
      <use xlink:href="#STIXGeneral-Regular-50" transform="translate(0 0.703125)"/>
      <use xlink:href="#STIXGeneral-Regular-6f" transform="translate(55.699997 0.703125)"/>
      <use xlink:href="#STIXGeneral-Regular-73" transform="translate(105.699982 0.703125)"/>
      <use xlink:href="#STIXGeneral-Regular-69" transform="translate(144.599976 0.703125)"/>
      <use xlink:href="#STIXGeneral-Regular-74" transform="translate(172.399963 0.703125)"/>
      <use xlink:href="#STIXGeneral-Regular-69" transform="translate(200.199951 0.703125)"/>
      <use xlink:href="#STIXGeneral-Regular-6f" transform="translate(227.999939 0.703125)"/>
      <use xlink:href="#STIXGeneral-Regular-6e" transform="translate(277.999924 0.703125)"/>
      <use xlink:href="#STIXGeneral-Regular-20" transform="translate(327.999908 0.703125)"/>
      <use xlink:href="#STIXGeneral-Regular-28" transform="translate(352.999893 0.703125)"/>
      <use xlink:href="#STIXGeneral-Italic-78" transform="translate(386.299881 0.703125)"/>
      <use xlink:href="#STIXGeneral-Regular-29" transform="translate(430.699875 0.703125)"/>
      <use xlink:href="#STIXGeneral-Regular-20" transform="translate(463.999863 0.703125)"/>
      <use xlink:href="#STIXGeneral-Regular-5b" transform="translate(488.999847 0.703125)"/>
      <use xlink:href="#STIXGeneral-Regular-6d" transform="translate(522.299835 0.703125)"/>
      <use xlink:href="#STIXGeneral-Regular-5d" transform="translate(600.099823 0.703125)"/>
     </g>
    </g>
   </g>
   <g id="matplotlib.axis_2">
    <g id="ytick_1">
     <g id="line2d_43">
      <path d="M 57.6 292.883476 
L 414.72 292.883476 
" clip-path="url(#pd626eebe5c)" style="fill: none; stroke: #d3d3d3; stroke-width: 0.8; stroke-linecap: square"/>
     </g>
     <g id="line2d_44">
      <defs>
       <path id="m96c921a770" d="M 0 0 
L -3.5 0 
" style="stroke: #000000; stroke-width: 0.8"/>
      </defs>
      <g>
       <use xlink:href="#m96c921a770" x="57.6" y="292.883476" style="stroke: #000000; stroke-width: 0.8"/>
      </g>
     </g>
     <g id="text_8">
      <!-- −0.010 -->
      <g transform="translate(21.25 296.298319) scale(0.1 -0.1)">
       <defs>
        <path id="STIXGeneral-Regular-2212" d="M 3974 1408 
L 410 1408 
L 410 1830 
L 3974 1830 
L 3974 1408 
z
" transform="scale(0.015625)"/>
       </defs>
       <use xlink:href="#STIXGeneral-Regular-2212"/>
       <use xlink:href="#STIXGeneral-Regular-30" x="68.499985"/>
       <use xlink:href="#STIXGeneral-Regular-2e" x="118.499969"/>
       <use xlink:href="#STIXGeneral-Regular-30" x="143.499954"/>
       <use xlink:href="#STIXGeneral-Regular-31" x="193.499939"/>
       <use xlink:href="#STIXGeneral-Regular-30" x="243.499924"/>
      </g>
     </g>
    </g>
    <g id="ytick_2">
     <g id="line2d_45">
      <path d="M 57.6 256.132165 
L 414.72 256.132165 
" clip-path="url(#pd626eebe5c)" style="fill: none; stroke: #d3d3d3; stroke-width: 0.8; stroke-linecap: square"/>
     </g>
     <g id="line2d_46">
      <g>
       <use xlink:href="#m96c921a770" x="57.6" y="256.132165" style="stroke: #000000; stroke-width: 0.8"/>
      </g>
     </g>
     <g id="text_9">
      <!-- −0.005 -->
      <g transform="translate(21.25 259.547008) scale(0.1 -0.1)">
       <defs>
        <path id="STIXGeneral-Regular-35" d="M 2803 4358 
L 2573 3814 
Q 2534 3731 2400 3731 
L 1158 3731 
L 902 3187 
Q 1606 3053 1920 2896 
Q 2234 2739 2502 2368 
Q 2726 2061 2726 1555 
Q 2726 1094 2576 780 
Q 2426 467 2099 224 
Q 1664 -90 1011 -90 
Q 646 -90 422 19 
Q 198 128 198 307 
Q 198 550 486 550 
Q 717 550 960 352 
Q 1210 147 1414 147 
Q 1747 147 2012 480 
Q 2278 813 2278 1229 
Q 2278 1843 1850 2189 
Q 1293 2637 486 2637 
Q 410 2637 410 2688 
L 416 2720 
L 1114 4237 
L 2438 4237 
Q 2547 4237 2608 4269 
Q 2669 4301 2746 4403 
L 2803 4358 
z
" transform="scale(0.015625)"/>
       </defs>
       <use xlink:href="#STIXGeneral-Regular-2212"/>
       <use xlink:href="#STIXGeneral-Regular-30" x="68.499985"/>
       <use xlink:href="#STIXGeneral-Regular-2e" x="118.499969"/>
       <use xlink:href="#STIXGeneral-Regular-30" x="143.499954"/>
       <use xlink:href="#STIXGeneral-Regular-30" x="193.499939"/>
       <use xlink:href="#STIXGeneral-Regular-35" x="243.499924"/>
      </g>
     </g>
    </g>
    <g id="ytick_3">
     <g id="line2d_47">
      <path d="M 57.6 219.380853 
L 414.72 219.380853 
" clip-path="url(#pd626eebe5c)" style="fill: none; stroke: #d3d3d3; stroke-width: 0.8; stroke-linecap: square"/>
     </g>
     <g id="line2d_48">
      <g>
       <use xlink:href="#m96c921a770" x="57.6" y="219.380853" style="stroke: #000000; stroke-width: 0.8"/>
      </g>
     </g>
     <g id="text_10">
      <!-- 0.000 -->
      <g transform="translate(28.1 222.795697) scale(0.1 -0.1)">
       <use xlink:href="#STIXGeneral-Regular-30"/>
       <use xlink:href="#STIXGeneral-Regular-2e" x="49.999985"/>
       <use xlink:href="#STIXGeneral-Regular-30" x="74.999969"/>
       <use xlink:href="#STIXGeneral-Regular-30" x="124.999954"/>
       <use xlink:href="#STIXGeneral-Regular-30" x="174.999939"/>
      </g>
     </g>
    </g>
    <g id="ytick_4">
     <g id="line2d_49">
      <path d="M 57.6 182.629542 
L 414.72 182.629542 
" clip-path="url(#pd626eebe5c)" style="fill: none; stroke: #d3d3d3; stroke-width: 0.8; stroke-linecap: square"/>
     </g>
     <g id="line2d_50">
      <g>
       <use xlink:href="#m96c921a770" x="57.6" y="182.629542" style="stroke: #000000; stroke-width: 0.8"/>
      </g>
     </g>
     <g id="text_11">
      <!-- 0.005 -->
      <g transform="translate(28.1 186.044386) scale(0.1 -0.1)">
       <use xlink:href="#STIXGeneral-Regular-30"/>
       <use xlink:href="#STIXGeneral-Regular-2e" x="49.999985"/>
       <use xlink:href="#STIXGeneral-Regular-30" x="74.999969"/>
       <use xlink:href="#STIXGeneral-Regular-30" x="124.999954"/>
       <use xlink:href="#STIXGeneral-Regular-35" x="174.999939"/>
      </g>
     </g>
    </g>
    <g id="ytick_5">
     <g id="line2d_51">
      <path d="M 57.6 145.878231 
L 414.72 145.878231 
" clip-path="url(#pd626eebe5c)" style="fill: none; stroke: #d3d3d3; stroke-width: 0.8; stroke-linecap: square"/>
     </g>
     <g id="line2d_52">
      <g>
       <use xlink:href="#m96c921a770" x="57.6" y="145.878231" style="stroke: #000000; stroke-width: 0.8"/>
      </g>
     </g>
     <g id="text_12">
      <!-- 0.010 -->
      <g transform="translate(28.1 149.293075) scale(0.1 -0.1)">
       <use xlink:href="#STIXGeneral-Regular-30"/>
       <use xlink:href="#STIXGeneral-Regular-2e" x="49.999985"/>
       <use xlink:href="#STIXGeneral-Regular-30" x="74.999969"/>
       <use xlink:href="#STIXGeneral-Regular-31" x="124.999954"/>
       <use xlink:href="#STIXGeneral-Regular-30" x="174.999939"/>
      </g>
     </g>
    </g>
    <g id="ytick_6">
     <g id="line2d_53">
      <path d="M 57.6 109.12692 
L 414.72 109.12692 
" clip-path="url(#pd626eebe5c)" style="fill: none; stroke: #d3d3d3; stroke-width: 0.8; stroke-linecap: square"/>
     </g>
     <g id="line2d_54">
      <g>
       <use xlink:href="#m96c921a770" x="57.6" y="109.12692" style="stroke: #000000; stroke-width: 0.8"/>
      </g>
     </g>
     <g id="text_13">
      <!-- 0.015 -->
      <g transform="translate(28.1 112.541764) scale(0.1 -0.1)">
       <use xlink:href="#STIXGeneral-Regular-30"/>
       <use xlink:href="#STIXGeneral-Regular-2e" x="49.999985"/>
       <use xlink:href="#STIXGeneral-Regular-30" x="74.999969"/>
       <use xlink:href="#STIXGeneral-Regular-31" x="124.999954"/>
       <use xlink:href="#STIXGeneral-Regular-35" x="174.999939"/>
      </g>
     </g>
    </g>
    <g id="ytick_7">
     <g id="line2d_55">
      <path d="M 57.6 72.375609 
L 414.72 72.375609 
" clip-path="url(#pd626eebe5c)" style="fill: none; stroke: #d3d3d3; stroke-width: 0.8; stroke-linecap: square"/>
     </g>
     <g id="line2d_56">
      <g>
       <use xlink:href="#m96c921a770" x="57.6" y="72.375609" style="stroke: #000000; stroke-width: 0.8"/>
      </g>
     </g>
     <g id="text_14">
      <!-- 0.020 -->
      <g transform="translate(28.1 75.790453) scale(0.1 -0.1)">
       <use xlink:href="#STIXGeneral-Regular-30"/>
       <use xlink:href="#STIXGeneral-Regular-2e" x="49.999985"/>
       <use xlink:href="#STIXGeneral-Regular-30" x="74.999969"/>
       <use xlink:href="#STIXGeneral-Regular-32" x="124.999954"/>
       <use xlink:href="#STIXGeneral-Regular-30" x="174.999939"/>
      </g>
     </g>
    </g>
    <g id="ytick_8">
     <g id="line2d_57">
      <path d="M 57.6 307.584 
L 414.72 307.584 
" clip-path="url(#pd626eebe5c)" style="fill: none; stroke-dasharray: 0.8,1.32; stroke-dashoffset: 0; stroke: #d3d3d3; stroke-width: 0.8"/>
     </g>
     <g id="line2d_58">
      <defs>
       <path id="m3542e2fc6e" d="M 0 0 
L -2 0 
" style="stroke: #000000; stroke-width: 0.6"/>
      </defs>
      <g>
       <use xlink:href="#m3542e2fc6e" x="57.6" y="307.584" style="stroke: #000000; stroke-width: 0.6"/>
      </g>
     </g>
    </g>
    <g id="ytick_9">
     <g id="line2d_59">
      <path d="M 57.6 300.233738 
L 414.72 300.233738 
" clip-path="url(#pd626eebe5c)" style="fill: none; stroke-dasharray: 0.8,1.32; stroke-dashoffset: 0; stroke: #d3d3d3; stroke-width: 0.8"/>
     </g>
     <g id="line2d_60">
      <g>
       <use xlink:href="#m3542e2fc6e" x="57.6" y="300.233738" style="stroke: #000000; stroke-width: 0.6"/>
      </g>
     </g>
    </g>
    <g id="ytick_10">
     <g id="line2d_61">
      <path d="M 57.6 285.533213 
L 414.72 285.533213 
" clip-path="url(#pd626eebe5c)" style="fill: none; stroke-dasharray: 0.8,1.32; stroke-dashoffset: 0; stroke: #d3d3d3; stroke-width: 0.8"/>
     </g>
     <g id="line2d_62">
      <g>
       <use xlink:href="#m3542e2fc6e" x="57.6" y="285.533213" style="stroke: #000000; stroke-width: 0.6"/>
      </g>
     </g>
    </g>
    <g id="ytick_11">
     <g id="line2d_63">
      <path d="M 57.6 278.182951 
L 414.72 278.182951 
" clip-path="url(#pd626eebe5c)" style="fill: none; stroke-dasharray: 0.8,1.32; stroke-dashoffset: 0; stroke: #d3d3d3; stroke-width: 0.8"/>
     </g>
     <g id="line2d_64">
      <g>
       <use xlink:href="#m3542e2fc6e" x="57.6" y="278.182951" style="stroke: #000000; stroke-width: 0.6"/>
      </g>
     </g>
    </g>
    <g id="ytick_12">
     <g id="line2d_65">
      <path d="M 57.6 270.832689 
L 414.72 270.832689 
" clip-path="url(#pd626eebe5c)" style="fill: none; stroke-dasharray: 0.8,1.32; stroke-dashoffset: 0; stroke: #d3d3d3; stroke-width: 0.8"/>
     </g>
     <g id="line2d_66">
      <g>
       <use xlink:href="#m3542e2fc6e" x="57.6" y="270.832689" style="stroke: #000000; stroke-width: 0.6"/>
      </g>
     </g>
    </g>
    <g id="ytick_13">
     <g id="line2d_67">
      <path d="M 57.6 263.482427 
L 414.72 263.482427 
" clip-path="url(#pd626eebe5c)" style="fill: none; stroke-dasharray: 0.8,1.32; stroke-dashoffset: 0; stroke: #d3d3d3; stroke-width: 0.8"/>
     </g>
     <g id="line2d_68">
      <g>
       <use xlink:href="#m3542e2fc6e" x="57.6" y="263.482427" style="stroke: #000000; stroke-width: 0.6"/>
      </g>
     </g>
    </g>
    <g id="ytick_14">
     <g id="line2d_69">
      <path d="M 57.6 248.781902 
L 414.72 248.781902 
" clip-path="url(#pd626eebe5c)" style="fill: none; stroke-dasharray: 0.8,1.32; stroke-dashoffset: 0; stroke: #d3d3d3; stroke-width: 0.8"/>
     </g>
     <g id="line2d_70">
      <g>
       <use xlink:href="#m3542e2fc6e" x="57.6" y="248.781902" style="stroke: #000000; stroke-width: 0.6"/>
      </g>
     </g>
    </g>
    <g id="ytick_15">
     <g id="line2d_71">
      <path d="M 57.6 241.43164 
L 414.72 241.43164 
" clip-path="url(#pd626eebe5c)" style="fill: none; stroke-dasharray: 0.8,1.32; stroke-dashoffset: 0; stroke: #d3d3d3; stroke-width: 0.8"/>
     </g>
     <g id="line2d_72">
      <g>
       <use xlink:href="#m3542e2fc6e" x="57.6" y="241.43164" style="stroke: #000000; stroke-width: 0.6"/>
      </g>
     </g>
    </g>
    <g id="ytick_16">
     <g id="line2d_73">
      <path d="M 57.6 234.081378 
L 414.72 234.081378 
" clip-path="url(#pd626eebe5c)" style="fill: none; stroke-dasharray: 0.8,1.32; stroke-dashoffset: 0; stroke: #d3d3d3; stroke-width: 0.8"/>
     </g>
     <g id="line2d_74">
      <g>
       <use xlink:href="#m3542e2fc6e" x="57.6" y="234.081378" style="stroke: #000000; stroke-width: 0.6"/>
      </g>
     </g>
    </g>
    <g id="ytick_17">
     <g id="line2d_75">
      <path d="M 57.6 226.731116 
L 414.72 226.731116 
" clip-path="url(#pd626eebe5c)" style="fill: none; stroke-dasharray: 0.8,1.32; stroke-dashoffset: 0; stroke: #d3d3d3; stroke-width: 0.8"/>
     </g>
     <g id="line2d_76">
      <g>
       <use xlink:href="#m3542e2fc6e" x="57.6" y="226.731116" style="stroke: #000000; stroke-width: 0.6"/>
      </g>
     </g>
    </g>
    <g id="ytick_18">
     <g id="line2d_77">
      <path d="M 57.6 212.030591 
L 414.72 212.030591 
" clip-path="url(#pd626eebe5c)" style="fill: none; stroke-dasharray: 0.8,1.32; stroke-dashoffset: 0; stroke: #d3d3d3; stroke-width: 0.8"/>
     </g>
     <g id="line2d_78">
      <g>
       <use xlink:href="#m3542e2fc6e" x="57.6" y="212.030591" style="stroke: #000000; stroke-width: 0.6"/>
      </g>
     </g>
    </g>
    <g id="ytick_19">
     <g id="line2d_79">
      <path d="M 57.6 204.680329 
L 414.72 204.680329 
" clip-path="url(#pd626eebe5c)" style="fill: none; stroke-dasharray: 0.8,1.32; stroke-dashoffset: 0; stroke: #d3d3d3; stroke-width: 0.8"/>
     </g>
     <g id="line2d_80">
      <g>
       <use xlink:href="#m3542e2fc6e" x="57.6" y="204.680329" style="stroke: #000000; stroke-width: 0.6"/>
      </g>
     </g>
    </g>
    <g id="ytick_20">
     <g id="line2d_81">
      <path d="M 57.6 197.330067 
L 414.72 197.330067 
" clip-path="url(#pd626eebe5c)" style="fill: none; stroke-dasharray: 0.8,1.32; stroke-dashoffset: 0; stroke: #d3d3d3; stroke-width: 0.8"/>
     </g>
     <g id="line2d_82">
      <g>
       <use xlink:href="#m3542e2fc6e" x="57.6" y="197.330067" style="stroke: #000000; stroke-width: 0.6"/>
      </g>
     </g>
    </g>
    <g id="ytick_21">
     <g id="line2d_83">
      <path d="M 57.6 189.979805 
L 414.72 189.979805 
" clip-path="url(#pd626eebe5c)" style="fill: none; stroke-dasharray: 0.8,1.32; stroke-dashoffset: 0; stroke: #d3d3d3; stroke-width: 0.8"/>
     </g>
     <g id="line2d_84">
      <g>
       <use xlink:href="#m3542e2fc6e" x="57.6" y="189.979805" style="stroke: #000000; stroke-width: 0.6"/>
      </g>
     </g>
    </g>
    <g id="ytick_22">
     <g id="line2d_85">
      <path d="M 57.6 175.27928 
L 414.72 175.27928 
" clip-path="url(#pd626eebe5c)" style="fill: none; stroke-dasharray: 0.8,1.32; stroke-dashoffset: 0; stroke: #d3d3d3; stroke-width: 0.8"/>
     </g>
     <g id="line2d_86">
      <g>
       <use xlink:href="#m3542e2fc6e" x="57.6" y="175.27928" style="stroke: #000000; stroke-width: 0.6"/>
      </g>
     </g>
    </g>
    <g id="ytick_23">
     <g id="line2d_87">
      <path d="M 57.6 167.929018 
L 414.72 167.929018 
" clip-path="url(#pd626eebe5c)" style="fill: none; stroke-dasharray: 0.8,1.32; stroke-dashoffset: 0; stroke: #d3d3d3; stroke-width: 0.8"/>
     </g>
     <g id="line2d_88">
      <g>
       <use xlink:href="#m3542e2fc6e" x="57.6" y="167.929018" style="stroke: #000000; stroke-width: 0.6"/>
      </g>
     </g>
    </g>
    <g id="ytick_24">
     <g id="line2d_89">
      <path d="M 57.6 160.578756 
L 414.72 160.578756 
" clip-path="url(#pd626eebe5c)" style="fill: none; stroke-dasharray: 0.8,1.32; stroke-dashoffset: 0; stroke: #d3d3d3; stroke-width: 0.8"/>
     </g>
     <g id="line2d_90">
      <g>
       <use xlink:href="#m3542e2fc6e" x="57.6" y="160.578756" style="stroke: #000000; stroke-width: 0.6"/>
      </g>
     </g>
    </g>
    <g id="ytick_25">
     <g id="line2d_91">
      <path d="M 57.6 153.228494 
L 414.72 153.228494 
" clip-path="url(#pd626eebe5c)" style="fill: none; stroke-dasharray: 0.8,1.32; stroke-dashoffset: 0; stroke: #d3d3d3; stroke-width: 0.8"/>
     </g>
     <g id="line2d_92">
      <g>
       <use xlink:href="#m3542e2fc6e" x="57.6" y="153.228494" style="stroke: #000000; stroke-width: 0.6"/>
      </g>
     </g>
    </g>
    <g id="ytick_26">
     <g id="line2d_93">
      <path d="M 57.6 138.527969 
L 414.72 138.527969 
" clip-path="url(#pd626eebe5c)" style="fill: none; stroke-dasharray: 0.8,1.32; stroke-dashoffset: 0; stroke: #d3d3d3; stroke-width: 0.8"/>
     </g>
     <g id="line2d_94">
      <g>
       <use xlink:href="#m3542e2fc6e" x="57.6" y="138.527969" style="stroke: #000000; stroke-width: 0.6"/>
      </g>
     </g>
    </g>
    <g id="ytick_27">
     <g id="line2d_95">
      <path d="M 57.6 131.177707 
L 414.72 131.177707 
" clip-path="url(#pd626eebe5c)" style="fill: none; stroke-dasharray: 0.8,1.32; stroke-dashoffset: 0; stroke: #d3d3d3; stroke-width: 0.8"/>
     </g>
     <g id="line2d_96">
      <g>
       <use xlink:href="#m3542e2fc6e" x="57.6" y="131.177707" style="stroke: #000000; stroke-width: 0.6"/>
      </g>
     </g>
    </g>
    <g id="ytick_28">
     <g id="line2d_97">
      <path d="M 57.6 123.827445 
L 414.72 123.827445 
" clip-path="url(#pd626eebe5c)" style="fill: none; stroke-dasharray: 0.8,1.32; stroke-dashoffset: 0; stroke: #d3d3d3; stroke-width: 0.8"/>
     </g>
     <g id="line2d_98">
      <g>
       <use xlink:href="#m3542e2fc6e" x="57.6" y="123.827445" style="stroke: #000000; stroke-width: 0.6"/>
      </g>
     </g>
    </g>
    <g id="ytick_29">
     <g id="line2d_99">
      <path d="M 57.6 116.477182 
L 414.72 116.477182 
" clip-path="url(#pd626eebe5c)" style="fill: none; stroke-dasharray: 0.8,1.32; stroke-dashoffset: 0; stroke: #d3d3d3; stroke-width: 0.8"/>
     </g>
     <g id="line2d_100">
      <g>
       <use xlink:href="#m3542e2fc6e" x="57.6" y="116.477182" style="stroke: #000000; stroke-width: 0.6"/>
      </g>
     </g>
    </g>
    <g id="ytick_30">
     <g id="line2d_101">
      <path d="M 57.6 101.776658 
L 414.72 101.776658 
" clip-path="url(#pd626eebe5c)" style="fill: none; stroke-dasharray: 0.8,1.32; stroke-dashoffset: 0; stroke: #d3d3d3; stroke-width: 0.8"/>
     </g>
     <g id="line2d_102">
      <g>
       <use xlink:href="#m3542e2fc6e" x="57.6" y="101.776658" style="stroke: #000000; stroke-width: 0.6"/>
      </g>
     </g>
    </g>
    <g id="ytick_31">
     <g id="line2d_103">
      <path d="M 57.6 94.426396 
L 414.72 94.426396 
" clip-path="url(#pd626eebe5c)" style="fill: none; stroke-dasharray: 0.8,1.32; stroke-dashoffset: 0; stroke: #d3d3d3; stroke-width: 0.8"/>
     </g>
     <g id="line2d_104">
      <g>
       <use xlink:href="#m3542e2fc6e" x="57.6" y="94.426396" style="stroke: #000000; stroke-width: 0.6"/>
      </g>
     </g>
    </g>
    <g id="ytick_32">
     <g id="line2d_105">
      <path d="M 57.6 87.076134 
L 414.72 87.076134 
" clip-path="url(#pd626eebe5c)" style="fill: none; stroke-dasharray: 0.8,1.32; stroke-dashoffset: 0; stroke: #d3d3d3; stroke-width: 0.8"/>
     </g>
     <g id="line2d_106">
      <g>
       <use xlink:href="#m3542e2fc6e" x="57.6" y="87.076134" style="stroke: #000000; stroke-width: 0.6"/>
      </g>
     </g>
    </g>
    <g id="ytick_33">
     <g id="line2d_107">
      <path d="M 57.6 79.725871 
L 414.72 79.725871 
" clip-path="url(#pd626eebe5c)" style="fill: none; stroke-dasharray: 0.8,1.32; stroke-dashoffset: 0; stroke: #d3d3d3; stroke-width: 0.8"/>
     </g>
     <g id="line2d_108">
      <g>
       <use xlink:href="#m3542e2fc6e" x="57.6" y="79.725871" style="stroke: #000000; stroke-width: 0.6"/>
      </g>
     </g>
    </g>
    <g id="ytick_34">
     <g id="line2d_109">
      <path d="M 57.6 65.025347 
L 414.72 65.025347 
" clip-path="url(#pd626eebe5c)" style="fill: none; stroke-dasharray: 0.8,1.32; stroke-dashoffset: 0; stroke: #d3d3d3; stroke-width: 0.8"/>
     </g>
     <g id="line2d_110">
      <g>
       <use xlink:href="#m3542e2fc6e" x="57.6" y="65.025347" style="stroke: #000000; stroke-width: 0.6"/>
      </g>
     </g>
    </g>
    <g id="ytick_35">
     <g id="line2d_111">
      <path d="M 57.6 57.675085 
L 414.72 57.675085 
" clip-path="url(#pd626eebe5c)" style="fill: none; stroke-dasharray: 0.8,1.32; stroke-dashoffset: 0; stroke: #d3d3d3; stroke-width: 0.8"/>
     </g>
     <g id="line2d_112">
      <g>
       <use xlink:href="#m3542e2fc6e" x="57.6" y="57.675085" style="stroke: #000000; stroke-width: 0.6"/>
      </g>
     </g>
    </g>
    <g id="ytick_36">
     <g id="line2d_113">
      <path d="M 57.6 50.324823 
L 414.72 50.324823 
" clip-path="url(#pd626eebe5c)" style="fill: none; stroke-dasharray: 0.8,1.32; stroke-dashoffset: 0; stroke: #d3d3d3; stroke-width: 0.8"/>
     </g>
     <g id="line2d_114">
      <g>
       <use xlink:href="#m3542e2fc6e" x="57.6" y="50.324823" style="stroke: #000000; stroke-width: 0.6"/>
      </g>
     </g>
    </g>
    <g id="ytick_37">
     <g id="line2d_115">
      <path d="M 57.6 42.97456 
L 414.72 42.97456 
" clip-path="url(#pd626eebe5c)" style="fill: none; stroke-dasharray: 0.8,1.32; stroke-dashoffset: 0; stroke: #d3d3d3; stroke-width: 0.8"/>
     </g>
     <g id="line2d_116">
      <g>
       <use xlink:href="#m3542e2fc6e" x="57.6" y="42.97456" style="stroke: #000000; stroke-width: 0.6"/>
      </g>
     </g>
    </g>
    <g id="text_15">
     <!-- Displacement ($u$) [m] -->
     <g transform="translate(15.05 217.578) rotate(-90) scale(0.1 -0.1)">
      <defs>
       <path id="STIXGeneral-Regular-44" d="M 102 4237 
L 1830 4237 
Q 3078 4237 3750 3654 
Q 4384 3110 4384 2138 
Q 4384 966 3514 410 
Q 2880 0 1901 0 
L 102 0 
L 102 122 
Q 474 147 570 252 
Q 666 358 666 736 
L 666 3520 
Q 666 3891 570 3990 
Q 474 4090 102 4115 
L 102 4237 
z
M 1318 3731 
L 1318 538 
Q 1318 365 1379 301 
Q 1440 237 1626 237 
Q 2125 237 2432 307 
Q 2739 378 3021 570 
Q 3686 1018 3686 2099 
Q 3686 3027 3078 3558 
Q 2803 3802 2476 3901 
Q 2150 4000 1658 4000 
Q 1472 4000 1395 3942 
Q 1318 3885 1318 3731 
z
" transform="scale(0.015625)"/>
       <path id="STIXGeneral-Regular-70" d="M 1018 2931 
L 1018 2438 
Q 1421 2944 1939 2944 
Q 2406 2944 2707 2560 
Q 3008 2176 3008 1581 
Q 3008 883 2621 409 
Q 2234 -64 1664 -64 
Q 1466 -64 1328 -6 
Q 1190 51 1018 211 
L 1018 -794 
Q 1018 -1094 1120 -1180 
Q 1222 -1267 1581 -1274 
L 1581 -1389 
L 32 -1389 
L 32 -1280 
Q 314 -1254 397 -1171 
Q 480 -1088 480 -838 
L 480 2157 
Q 480 2381 429 2451 
Q 378 2522 218 2522 
Q 115 2522 58 2515 
L 58 2618 
Q 506 2752 979 2944 
L 1018 2931 
z
M 1018 2138 
L 1018 563 
Q 1018 422 1238 281 
Q 1459 141 1683 141 
Q 2029 141 2243 467 
Q 2458 794 2458 1325 
Q 2458 1888 2243 2224 
Q 2029 2560 1670 2560 
Q 1446 2560 1232 2419 
Q 1018 2278 1018 2138 
z
" transform="scale(0.015625)"/>
       <path id="STIXGeneral-Regular-6c" d="M 1645 0 
L 134 0 
L 134 96 
Q 435 122 531 221 
Q 627 320 627 589 
L 627 3590 
Q 627 3821 569 3910 
Q 512 4000 358 4000 
Q 224 4000 122 3987 
L 122 4090 
Q 730 4237 1133 4371 
L 1165 4346 
L 1165 557 
Q 1165 288 1254 201 
Q 1344 115 1645 96 
L 1645 0 
z
" transform="scale(0.015625)"/>
       <path id="STIXGeneral-Regular-61" d="M 2829 422 
L 2829 243 
Q 2586 -64 2253 -64 
Q 1888 -64 1843 403 
L 1837 403 
Q 1427 -64 909 -64 
Q 608 -64 422 112 
Q 237 288 237 602 
Q 237 1050 685 1350 
Q 992 1555 1837 1869 
L 1837 2214 
Q 1837 2502 1699 2646 
Q 1562 2790 1338 2790 
Q 1146 2790 1018 2697 
Q 890 2605 890 2477 
Q 890 2419 909 2348 
Q 928 2278 928 2208 
Q 928 2112 841 2029 
Q 755 1946 634 1946 
Q 525 1946 441 2029 
Q 358 2112 358 2240 
Q 358 2547 685 2752 
Q 986 2944 1421 2944 
Q 1939 2944 2176 2656 
Q 2291 2522 2323 2384 
Q 2355 2246 2355 1946 
L 2355 723 
Q 2355 301 2554 301 
Q 2682 301 2829 422 
z
M 1837 813 
L 1837 1715 
Q 1248 1510 1018 1293 
Q 800 1094 800 800 
Q 800 557 921 432 
Q 1043 307 1242 307 
Q 1453 307 1613 410 
Q 1747 506 1792 589 
Q 1837 672 1837 813 
z
" transform="scale(0.015625)"/>
       <path id="STIXGeneral-Regular-63" d="M 2547 998 
L 2637 941 
Q 2362 403 2112 205 
Q 1786 -64 1376 -64 
Q 845 -64 502 336 
Q 160 736 160 1357 
Q 160 2170 698 2618 
Q 1094 2944 1562 2944 
Q 1965 2944 2256 2749 
Q 2547 2554 2547 2285 
Q 2547 2176 2457 2096 
Q 2368 2016 2246 2016 
Q 2022 2016 1939 2310 
L 1901 2451 
Q 1850 2630 1773 2694 
Q 1696 2758 1523 2758 
Q 1133 2758 893 2451 
Q 653 2144 653 1645 
Q 653 1094 928 745 
Q 1203 397 1645 397 
Q 1920 397 2118 528 
Q 2317 659 2547 998 
z
" transform="scale(0.015625)"/>
       <path id="STIXGeneral-Regular-65" d="M 2611 1050 
L 2714 1005 
Q 2330 -64 1376 -64 
Q 813 -64 486 329 
Q 160 723 160 1389 
Q 160 2074 525 2509 
Q 890 2944 1485 2944 
Q 2061 2944 2374 2502 
Q 2560 2246 2592 1773 
L 621 1773 
Q 646 1370 700 1158 
Q 755 947 915 730 
Q 1184 378 1626 378 
Q 1939 378 2153 531 
Q 2368 685 2611 1050 
z
M 634 1978 
L 1939 1978 
Q 1882 2381 1750 2547 
Q 1619 2714 1312 2714 
Q 1043 2714 864 2525 
Q 685 2336 634 1978 
z
" transform="scale(0.015625)"/>
       <path id="STIXGeneral-Italic-75" d="M 2950 762 
L 3040 704 
Q 2733 237 2560 89 
Q 2387 -58 2157 -58 
Q 1850 -58 1850 250 
Q 1850 538 2138 1510 
Q 1568 576 1257 253 
Q 947 -70 608 -70 
Q 269 -70 269 269 
Q 269 384 442 1088 
L 666 1978 
Q 755 2349 755 2406 
Q 755 2483 684 2521 
Q 614 2560 365 2560 
L 365 2650 
Q 806 2701 1325 2822 
L 1350 2803 
L 781 531 
Q 762 474 762 429 
Q 762 269 890 269 
Q 1178 269 1798 1210 
Q 2010 1530 2128 1795 
Q 2246 2061 2502 2765 
L 2976 2765 
L 2470 851 
Q 2349 390 2349 352 
Q 2349 243 2419 243 
Q 2496 243 2605 345 
Q 2714 448 2950 762 
z
" transform="scale(0.015625)"/>
      </defs>
      <use xlink:href="#STIXGeneral-Regular-44" transform="translate(0 0.703125)"/>
      <use xlink:href="#STIXGeneral-Regular-69" transform="translate(72.199982 0.703125)"/>
      <use xlink:href="#STIXGeneral-Regular-73" transform="translate(99.999969 0.703125)"/>
      <use xlink:href="#STIXGeneral-Regular-70" transform="translate(138.899963 0.703125)"/>
      <use xlink:href="#STIXGeneral-Regular-6c" transform="translate(188.899948 0.703125)"/>
      <use xlink:href="#STIXGeneral-Regular-61" transform="translate(216.699936 0.703125)"/>
      <use xlink:href="#STIXGeneral-Regular-63" transform="translate(261.09993 0.703125)"/>
      <use xlink:href="#STIXGeneral-Regular-65" transform="translate(305.499924 0.703125)"/>
      <use xlink:href="#STIXGeneral-Regular-6d" transform="translate(349.899918 0.703125)"/>
      <use xlink:href="#STIXGeneral-Regular-65" transform="translate(427.699905 0.703125)"/>
      <use xlink:href="#STIXGeneral-Regular-6e" transform="translate(472.099899 0.703125)"/>
      <use xlink:href="#STIXGeneral-Regular-74" transform="translate(522.099884 0.703125)"/>
      <use xlink:href="#STIXGeneral-Regular-20" transform="translate(549.899872 0.703125)"/>
      <use xlink:href="#STIXGeneral-Regular-28" transform="translate(574.899857 0.703125)"/>
      <use xlink:href="#STIXGeneral-Italic-75" transform="translate(608.199844 0.703125)"/>
      <use xlink:href="#STIXGeneral-Regular-29" transform="translate(658.199829 0.703125)"/>
      <use xlink:href="#STIXGeneral-Regular-20" transform="translate(691.499817 0.703125)"/>
      <use xlink:href="#STIXGeneral-Regular-5b" transform="translate(716.499802 0.703125)"/>
      <use xlink:href="#STIXGeneral-Regular-6d" transform="translate(749.799789 0.703125)"/>
      <use xlink:href="#STIXGeneral-Regular-5d" transform="translate(827.599777 0.703125)"/>
     </g>
    </g>
   </g>
   <g id="line2d_117">
    <path d="M 73.832727 292.883476 
L 398.487273 56.789748 
L 398.487273 56.789748 
" clip-path="url(#pd626eebe5c)" style="fill: none; stroke: #00ffff; stroke-linecap: square"/>
   </g>
   <g id="line2d_118">
    <path d="M 73.832727 292.883476 
L 76.804647 346.6 
M 296.691244 346.6 
L 301.318395 262.344414 
L 306.518067 163.517879 
L 311.71774 60.305712 
L 314.706178 -1 
L 314.706178 -1 
" clip-path="url(#pd626eebe5c)" style="fill: none; stroke: #33ccff; stroke-linecap: square"/>
   </g>
   <g id="line2d_119">
    <path d="M 73.832727 292.883476 
L 78.057461 272.067953 
L 82.282195 252.383071 
L 86.506929 233.803659 
L 90.406683 217.612856 
L 94.306437 202.322753 
L 98.206192 187.913555 
L 102.105946 174.365468 
L 106.0057 161.658696 
L 109.580475 150.732987 
L 113.15525 140.482335 
L 116.730025 130.891494 
L 120.304799 121.945216 
L 123.879574 113.628254 
L 127.129369 106.60065 
L 130.379165 100.069085 
L 133.62896 94.022104 
L 136.878755 88.44825 
L 140.12855 83.33607 
L 143.053366 79.120369 
L 145.978182 75.260994 
L 148.902998 71.749592 
L 151.827813 68.577813 
L 154.752629 65.737306 
L 157.677445 63.219719 
L 160.60226 61.016701 
L 163.527076 59.119902 
L 166.126912 57.68418 
L 168.726749 56.477944 
L 171.326585 55.49533 
L 173.926421 54.730472 
L 176.526257 54.177506 
L 179.126093 53.830565 
L 182.050909 53.679219 
L 184.975725 53.772851 
L 187.900541 54.103108 
L 190.825356 54.661641 
L 193.750172 55.440098 
L 196.999967 56.552828 
L 200.249762 57.915304 
L 203.499558 59.516071 
L 207.074333 61.538467 
L 210.649107 63.820086 
L 214.548862 66.586851 
L 218.448616 69.624171 
L 222.67335 73.196958 
L 227.223063 77.34483 
L 232.097756 82.099629 
L 237.297428 87.483013 
L 243.14706 93.866536 
L 249.97163 101.665872 
L 258.096118 111.304384 
L 273.370156 129.864392 
L 284.09448 142.709599 
L 291.569009 151.318143 
L 297.74362 158.102041 
L 303.268272 163.851735 
L 308.467944 168.934616 
L 313.017658 173.083067 
L 317.242391 176.656447 
L 321.467125 179.935583 
L 325.36688 182.679551 
L 328.941654 184.938864 
L 332.516429 186.937605 
L 335.766224 188.515697 
L 339.01602 189.854384 
L 342.265815 190.942212 
L 345.190631 191.697304 
L 348.115446 192.231569 
L 351.040262 192.536656 
L 353.965078 192.604215 
L 356.889894 192.425894 
L 359.48973 192.054217 
L 362.089566 191.475802 
L 364.689402 190.684782 
L 367.289238 189.675293 
L 369.889075 188.441469 
L 372.488911 186.977446 
L 375.088747 185.277357 
L 377.688583 183.335338 
L 380.613399 180.854081 
L 383.538215 178.050858 
L 386.46303 174.917315 
L 389.387846 171.445104 
L 392.312662 167.625872 
L 395.237477 163.451268 
L 398.162293 158.912942 
L 398.487273 158.385869 
L 398.487273 158.385869 
" clip-path="url(#pd626eebe5c)" style="fill: none; stroke: #6699ff; stroke-linecap: square"/>
   </g>
   <g id="line2d_120">
    <path d="M 73.832727 292.883476 
L 81.632236 274.755111 
L 95.281376 242.340663 
L 107.305618 214.010361 
L 115.105127 196.175933 
L 121.929697 181.117105 
L 128.104308 168.042798 
L 133.62896 156.860433 
L 138.828632 146.832829 
L 143.703325 137.908197 
L 148.253038 130.023094 
L 152.802752 122.591232 
L 157.027486 116.114539 
L 161.252219 110.061987 
L 165.151974 104.863087 
L 169.051728 100.046256 
L 172.626503 95.973311 
L 176.201278 92.233372 
L 179.776052 88.830791 
L 183.025848 86.033225 
L 186.275643 83.519324 
L 189.525438 81.290465 
L 192.775233 79.347422 
L 195.700049 77.843212 
L 198.624865 76.570368 
L 201.549681 75.528207 
L 204.474496 74.715648 
L 207.399312 74.131216 
L 210.324128 73.773042 
L 213.248943 73.638861 
L 216.173759 73.726014 
L 219.098575 74.031449 
L 222.023391 74.551717 
L 224.948206 75.282975 
L 228.198002 76.337774 
L 231.447797 77.641429 
L 234.697592 79.186955 
L 237.947387 80.966764 
L 241.522162 83.185359 
L 245.096937 85.665776 
L 248.996691 88.655439 
L 252.896446 91.924073 
L 257.121179 95.758038 
L 261.670893 100.198949 
L 266.545586 105.278114 
L 272.070238 111.3802 
L 278.244848 118.551386 
L 286.044357 127.979839 
L 307.817985 154.54345 
L 313.667617 161.203873 
L 318.54231 166.425451 
L 322.767043 170.645197 
L 326.666798 174.240955 
L 330.241572 177.247357 
L 333.491368 179.710858 
L 336.741163 181.890885 
L 339.665979 183.588668 
L 342.590794 185.015682 
L 345.190631 186.040577 
L 347.790467 186.821257 
L 350.065324 187.292523 
L 352.34018 187.555655 
L 354.615037 187.600549 
L 356.889894 187.41696 
L 359.16475 186.994496 
L 361.439607 186.32262 
L 363.714464 185.390654 
L 365.98932 184.187771 
L 368.264177 182.703004 
L 370.539034 180.925239 
L 372.81389 178.843217 
L 375.088747 176.445537 
L 377.363604 173.720651 
L 379.63846 170.656868 
L 381.913317 167.242354 
L 384.188174 163.465127 
L 386.78801 158.688598 
L 389.387846 153.404153 
L 391.987682 147.593215 
L 394.587518 141.236962 
L 397.187355 134.316325 
L 398.487273 130.638337 
L 398.487273 130.638337 
" clip-path="url(#pd626eebe5c)" style="fill: none; stroke: #9966ff; stroke-linecap: square"/>
   </g>
   <g id="line2d_121">
    <path d="M 73.832727 292.883476 
L 77.082523 287.016729 
L 80.657297 280.087109 
L 84.557052 272.03655 
L 89.106765 262.106482 
L 94.306437 250.203809 
L 101.131007 233.96857 
L 126.47941 173.013942 
L 132.329042 159.834286 
L 137.528714 148.650705 
L 142.403407 138.69515 
L 146.95312 129.917582 
L 151.177854 122.248483 
L 155.077609 115.606283 
L 158.977363 109.403523 
L 162.552138 104.117832 
L 166.126912 99.225938 
L 169.376708 95.127884 
L 172.626503 91.367773 
L 175.876298 87.949609 
L 179.126093 84.876194 
L 182.050909 82.40625 
L 184.975725 80.217286 
L 187.900541 78.308972 
L 190.825356 76.680267 
L 193.750172 75.329442 
L 196.350008 74.360065 
L 198.949844 73.60624 
L 201.549681 73.065451 
L 204.149517 72.734794 
L 206.749353 72.610992 
L 209.349189 72.6904 
L 212.274005 73.017643 
L 215.198821 73.590793 
L 218.123636 74.403105 
L 221.048452 75.447321 
L 223.973268 76.71569 
L 227.223063 78.377861 
L 230.472858 80.29465 
L 234.047633 82.682136 
L 237.622408 85.344778 
L 241.522162 88.541495 
L 245.746896 92.320004 
L 250.296609 96.718549 
L 255.171302 101.761951 
L 260.695954 107.822427 
L 267.195545 115.311189 
L 275.969992 125.795561 
L 290.91905 143.68884 
L 297.41864 151.094244 
L 302.618313 156.70496 
L 307.493006 161.636432 
L 311.71774 165.602569 
L 315.617494 168.972376 
L 319.192269 171.787567 
L 322.767043 174.315741 
L 326.016839 176.3448 
L 329.266634 178.099049 
L 332.19145 179.428494 
L 335.116265 180.508741 
L 337.716102 181.249867 
L 340.315938 181.776019 
L 342.915774 182.078958 
L 345.51561 182.150636 
L 348.115446 181.983196 
L 350.715283 181.568994 
L 353.315119 180.900599 
L 355.914955 179.970813 
L 358.514791 178.772673 
L 361.114627 177.299468 
L 363.714464 175.544745 
L 366.3143 173.502325 
L 368.914136 171.166307 
L 371.513972 168.531083 
L 374.113808 165.591345 
L 376.713645 162.342102 
L 379.63846 158.310944 
L 382.563276 153.876021 
L 385.488092 149.031745 
L 388.412907 143.773095 
L 391.662703 137.438796 
L 394.912498 130.582291 
L 398.162293 123.199355 
L 398.487273 122.431974 
L 398.487273 122.431974 
" clip-path="url(#pd626eebe5c)" style="fill: none; stroke: #cc33ff; stroke-linecap: square"/>
   </g>
   <g id="line2d_122">
    <path d="M 73.832727 292.883476 
L 78.382441 283.92334 
L 83.257133 273.818069 
L 88.781785 261.843323 
L 95.281376 247.212873 
L 104.380803 226.119912 
L 122.579656 183.80998 
L 129.729206 167.842657 
L 135.578837 155.295953 
L 140.778509 144.630534 
L 145.653202 135.114382 
L 150.202916 126.702824 
L 154.427649 119.334536 
L 158.652383 112.422227 
L 162.552138 106.469074 
L 166.126912 101.388714 
L 169.701687 96.681624 
L 173.276462 92.35876 
L 176.526257 88.770213 
L 179.776052 85.512847 
L 183.025848 82.591436 
L 185.950663 80.252455 
L 188.875479 78.190473 
L 191.800295 76.406654 
L 194.725111 74.901429 
L 197.324947 73.797106 
L 199.924783 72.911987 
L 202.524619 72.244924 
L 205.124455 71.794321 
L 207.724292 71.558135 
L 210.324128 71.53388 
L 212.923964 71.718628 
L 215.5238 72.109021 
L 218.448616 72.789288 
L 221.373432 73.71898 
L 224.298247 74.891398 
L 227.223063 76.299186 
L 230.472858 78.129702 
L 233.722654 80.229047 
L 236.972449 82.584424 
L 240.547224 85.454692 
L 244.446978 88.897448 
L 248.346732 92.639155 
L 252.571466 96.996952 
L 257.121179 102.001019 
L 262.320852 108.05174 
L 268.495463 115.591697 
L 276.94493 126.292 
L 291.244029 144.430551 
L 297.41864 151.882859 
L 302.618313 157.81571 
L 307.168026 162.673585 
L 311.39276 166.850714 
L 315.292514 170.379358 
L 318.867289 173.306207 
L 322.117084 175.688014 
L 325.36688 177.783765 
L 328.291695 179.409648 
L 331.216511 180.775127 
L 333.816347 181.75997 
L 336.416183 182.520467 
L 339.01602 183.048515 
L 341.615856 183.336463 
L 344.215692 183.377144 
L 346.490549 183.204666 
L 348.765405 182.833669 
L 351.040262 182.260384 
L 353.315119 181.4814 
L 355.589975 180.493681 
L 358.189812 179.105894 
L 360.789648 177.438748 
L 363.389484 175.489697 
L 365.98932 173.256965 
L 368.589156 170.739589 
L 371.188993 167.937453 
L 374.113808 164.445667 
L 377.038624 160.596985 
L 379.96344 156.395457 
L 383.213235 151.320225 
L 386.46303 145.826681 
L 390.037805 139.31619 
L 393.61258 132.336518 
L 397.512334 124.21743 
L 398.487273 122.109663 
L 398.487273 122.109663 
" clip-path="url(#pd626eebe5c)" style="fill: none; stroke: #ff00ff; stroke-linecap: square"/>
   </g>
   <g id="line2d_123">
    <path d="M 73.832727 292.883476 
L 78.70742 283.143141 
L 84.232072 271.568806 
L 90.406683 258.080907 
L 97.881212 241.178084 
L 109.255495 214.819132 
L 122.254676 184.830834 
L 129.729206 168.161571 
L 135.903817 154.930108 
L 141.428468 143.61959 
L 146.303161 134.126839 
L 150.852875 125.730674 
L 155.077609 118.372894 
L 159.302342 111.469301 
L 163.202097 105.524256 
L 166.776871 100.452726 
L 170.351646 95.756996 
L 173.926421 91.449139 
L 177.176216 87.878273 
L 180.426011 84.643173 
L 183.350827 82.023154 
L 186.275643 79.682606 
L 189.200459 77.623841 
L 192.125274 75.848365 
L 195.05009 74.356878 
L 197.649926 73.269452 
L 200.249762 72.405725 
L 202.849599 71.764581 
L 205.449435 71.344401 
L 208.049271 71.14307 
L 210.649107 71.157977 
L 213.248943 71.386025 
L 215.84878 71.823632 
L 218.448616 72.46674 
L 221.373432 73.430225 
L 224.298247 74.640925 
L 227.223063 76.09099 
L 230.472858 77.972491 
L 233.722654 80.126235 
L 236.972449 82.538534 
L 240.547224 85.473197 
L 244.446978 88.986831 
L 248.346732 92.79838 
L 252.571466 97.228643 
L 257.446159 102.677938 
L 262.970811 109.211936 
L 269.470401 117.256396 
L 280.519705 131.359636 
L 290.269091 143.664952 
L 296.443702 151.106935 
L 301.643374 157.029587 
L 306.193088 161.880002 
L 310.417821 166.053854 
L 314.317576 169.58479 
L 317.892351 172.520127 
L 321.142146 174.916495 
L 324.391941 177.034763 
L 327.316757 178.688876 
L 330.241572 180.091183 
L 333.166388 181.229935 
L 335.766224 182.011852 
L 338.366061 182.56923 
L 340.965897 182.894998 
L 343.565733 182.982489 
L 346.165569 182.82545 
L 348.765405 182.418054 
L 351.365242 181.754915 
L 353.965078 180.831096 
L 356.564914 179.642117 
L 359.16475 178.183969 
L 361.764586 176.453119 
L 364.364423 174.446517 
L 366.964259 172.1616 
L 369.564095 169.596303 
L 372.488911 166.373268 
L 375.413726 162.791933 
L 378.338542 158.85163 
L 381.263358 154.552503 
L 384.513153 149.356035 
L 387.762948 143.720239 
L 391.012744 137.648807 
L 394.587518 130.472957 
L 398.162293 122.784135 
L 398.487273 122.060043 
L 398.487273 122.060043 
" clip-path="url(#pd626eebe5c)" style="fill: none; stroke: #ff0000; stroke-linecap: square"/>
   </g>
   <g id="patch_3">
    <path d="M 57.6 307.584 
L 57.6 41.472 
" style="fill: none; stroke: #000000; stroke-width: 0.8; stroke-linejoin: miter; stroke-linecap: square"/>
   </g>
   <g id="patch_4">
    <path d="M 414.72 307.584 
L 414.72 41.472 
" style="fill: none; stroke: #000000; stroke-width: 0.8; stroke-linejoin: miter; stroke-linecap: square"/>
   </g>
   <g id="patch_5">
    <path d="M 57.6 307.584 
L 414.72 307.584 
" style="fill: none; stroke: #000000; stroke-width: 0.8; stroke-linejoin: miter; stroke-linecap: square"/>
   </g>
   <g id="patch_6">
    <path d="M 57.6 41.472 
L 414.72 41.472 
" style="fill: none; stroke: #000000; stroke-width: 0.8; stroke-linejoin: miter; stroke-linecap: square"/>
   </g>
  </g>
 </g>
 <defs>
  <clipPath id="pd626eebe5c">
   <rect x="57.6" y="41.472" width="357.12" height="266.112"/>
  </clipPath>
 </defs>
</svg>
